<svg xmlns="http://www.w3.org/2000/svg" xmlns:xlink="http://www.w3.org/1999/xlink" contentStyleType="text/css" data-diagram-type="ACTIVITY" height="2235.4167px" preserveAspectRatio="none" style="width:1191px;height:2235px;background:#FFFFFF;" version="1.1" viewBox="0 0 1191 2235" width="1191.6667px" zoomAndPan="magnify"><?plantuml 1.2026.6?><defs/><g><g class="title" data-source-line="1"><text fill="#000000" font-family="Arial" font-size="37.5" font-weight="700" lengthAdjust="spacing" textLength="1105.8289" x="41.6667" y="76.475">Rajah 3.2(b): Fasa Checkout &amp; Pengesahan Pesanan</text></g><rect fill="none" height="33.9518" style="stroke:none;stroke-width:2.0833;" width="943.1681" x="117.7887" y="122.406"/><ellipse cx="414.0806" cy="187.6078" fill="#222222" rx="20.8333" ry="20.8333" style="stroke:#222222;stroke-width:2.0833;"/><rect fill="#F8F9FA" height="73.1934" rx="26.0417" ry="26.0417" style="stroke:#333333;stroke-width:1.0417;" width="196.166" x="315.9976" y="250.1078"/><text fill="#000000" font-family="Arial" font-size="27.0833" lengthAdjust="spacing" textLength="154.4993" x="336.8309" y="296.0805">Semak troli</text><rect fill="#F8F9FA" height="73.1934" rx="26.0417" ry="26.0417" style="stroke:#333333;stroke-width:1.0417;" width="169.3339" x="329.4136" y="364.9679"/><text fill="#000000" font-family="Arial" font-size="27.0833" lengthAdjust="spacing" textLength="127.6672" x="350.2469" y="410.9406">Checkout</text><rect fill="#F8F9FA" height="73.1934" rx="26.0417" ry="26.0417" style="stroke:#333333;stroke-width:1.0417;" width="200.6622" x="313.7494" y="479.8279"/><text fill="#000000" font-family="Arial" font-size="27.0833" lengthAdjust="spacing" textLength="158.9956" x="334.5828" y="525.8006">Pilih alamat</text><rect fill="#F8F9FA" height="73.1934" rx="26.0417" ry="26.0417" style="stroke:#333333;stroke-width:1.0417;" width="406.1015" x="211.0298" y="594.6879"/><text fill="#000000" font-family="Arial" font-size="27.0833" lengthAdjust="spacing" textLength="364.4348" x="231.8631" y="640.6606">Pilih kaedah penghantaran</text><rect fill="#F8F9FA" height="73.1934" rx="26.0417" ry="26.0417" style="stroke:#333333;stroke-width:1.0417;" width="434.1634" x="196.9989" y="814.0238"/><text fill="#000000" font-family="Arial" font-size="27.0833" lengthAdjust="spacing" textLength="392.4967" x="217.8322" y="859.9965">Tetapkan penghantaran kain</text><polygon fill="#FFF3CD" points="306.915,709.5479,521.2461,709.5479,546.2461,734.5479,521.2461,759.5479,306.915,759.5479,281.915,734.5479,306.915,709.5479" style="stroke:#333333;stroke-width:1.0417;stroke-linejoin:miter;stroke-miterlimit:10;"/><text fill="#000000" font-family="Arial" font-size="29.1667" lengthAdjust="spacing" textLength="35.6893" x="422.4139" y="786.6211">Ya</text><text fill="#000000" font-family="Arial" font-size="25" lengthAdjust="spacing" textLength="214.3311" x="306.915" y="743.2027">Ada kain sendiri?</text><text fill="#000000" font-family="Arial" font-size="29.1667" lengthAdjust="spacing" textLength="79.1972" x="546.2461" y="727.6693">Tidak</text><polygon fill="#FFF3CD" points="414.0806,928.8839,439.0806,953.8839,414.0806,978.8839,389.0806,953.8839,414.0806,928.8839" style="stroke:#333333;stroke-width:1.0417;stroke-linejoin:miter;stroke-miterlimit:10;"/><rect fill="#F8F9FA" height="73.1934" rx="26.0417" ry="26.0417" style="stroke:#333333;stroke-width:1.0417;" width="307.6599" x="260.2506" y="1020.5505"/><text fill="#000000" font-family="Arial" font-size="27.0833" lengthAdjust="spacing" textLength="265.9932" x="281.0839" y="1066.5232">Pilih terma bayaran</text><rect fill="#F8F9FA" height="73.1934" rx="26.0417" ry="26.0417" style="stroke:#333333;stroke-width:1.0417;" width="326.1607" x="251.0002" y="1135.4106"/><text fill="#000000" font-family="Arial" font-size="27.0833" lengthAdjust="spacing" textLength="284.494" x="271.8335" y="1181.3833">Pilih kaedah bayaran</text><rect fill="#F8F9FA" height="73.1934" rx="26.0417" ry="26.0417" style="stroke:#333333;stroke-width:1.0417;" width="266.1621" x="280.9995" y="1250.2706"/><text fill="#000000" font-family="Arial" font-size="27.0833" lengthAdjust="spacing" textLength="224.4954" x="301.8328" y="1296.2433">Sahkan pesanan</text><rect fill="#F8F9FA" height="73.1934" rx="26.0417" ry="26.0417" style="stroke:#333333;stroke-width:1.0417;" width="238.0737" x="130.2887" y="1571.6573"/><text fill="#000000" font-family="Arial" font-size="27.0833" lengthAdjust="spacing" textLength="196.4071" x="151.122" y="1617.63">Bayaran gagal</text><ellipse cx="249.3256" cy="1709.434" fill="none" rx="22.9167" ry="22.9167" style="stroke:#222222;stroke-width:2.0833;"/><ellipse cx="249.3256" cy="1709.434" fill="#222222" rx="12.5" ry="12.5" style="stroke:#222222;stroke-width:2.0833;"/><rect fill="#F8F9FA" height="73.1934" rx="26.0417" ry="26.0417" style="stroke:#333333;stroke-width:1.0417;" width="236.6058" x="460.5326" y="1571.6573"/><text fill="#000000" font-family="Arial" font-size="27.0833" lengthAdjust="spacing" textLength="194.9392" x="481.366" y="1617.63">Cipta pesanan</text><rect fill="#F8F9FA" height="73.1934" rx="26.0417" ry="26.0417" style="stroke:#333333;stroke-width:1.0417;" width="337.6129" x="410.0291" y="1686.5173"/><text fill="#000000" font-family="Arial" font-size="27.0833" lengthAdjust="spacing" textLength="295.9462" x="430.8624" y="1732.49">Simpan item pesanan</text><rect fill="#F8F9FA" height="73.1934" rx="26.0417" ry="26.0417" style="stroke:#333333;stroke-width:1.0417;" width="252.4618" x="452.6047" y="1801.3774"/><text fill="#000000" font-family="Arial" font-size="27.0833" lengthAdjust="spacing" textLength="210.7951" x="473.438" y="1847.3501">Kosongkan troli</text><rect fill="#F8F9FA" height="73.1934" rx="26.0417" ry="26.0417" style="stroke:#333333;stroke-width:1.0417;" width="246.4183" x="455.6264" y="1916.2374"/><text fill="#000000" font-family="Arial" font-size="27.0833" lengthAdjust="spacing" textLength="204.7516" x="476.4598" y="1962.2101">Cipta sembang</text><rect fill="#F8F9FA" height="73.1934" rx="26.0417" ry="26.0417" style="stroke:#333333;stroke-width:1.0417;" width="311.6272" x="258.267" y="2031.0974"/><text fill="#000000" font-family="Arial" font-size="27.0833" lengthAdjust="spacing" textLength="269.9605" x="279.1003" y="2077.0701">Terima pengesahan</text><ellipse cx="414.0806" cy="2168.8741" fill="none" rx="22.9167" ry="22.9167" style="stroke:#222222;stroke-width:2.0833;"/><ellipse cx="414.0806" cy="2168.8741" fill="#222222" rx="12.5" ry="12.5" style="stroke:#222222;stroke-width:2.0833;"/><line style="stroke:#000000;stroke-width:3.125;" x1="117.7887" x2="117.7887" y1="122.406" y2="2191.7908"/><rect fill="#F8F9FA" height="73.1934" rx="26.0417" ry="26.0417" style="stroke:#333333;stroke-width:1.0417;" width="250.5046" x="799.5667" y="1365.1306"/><text fill="#000000" font-family="Arial" font-size="27.0833" lengthAdjust="spacing" textLength="208.8379" x="820.4" y="1411.1033">Proses bayaran</text><polygon fill="#FFF3CD" points="870.5892,1479.9906,979.0487,1479.9906,1004.0487,1504.9906,979.0487,1529.9906,870.5892,1529.9906,845.5892,1504.9906,870.5892,1479.9906" style="stroke:#333333;stroke-width:1.0417;stroke-linejoin:miter;stroke-miterlimit:10;"/><text fill="#000000" font-family="Arial" font-size="25" lengthAdjust="spacing" textLength="108.4595" x="870.5892" y="1513.6454">Berjaya?</text><text fill="#000000" font-family="Arial" font-size="29.1667" lengthAdjust="spacing" textLength="79.1972" x="766.392" y="1498.112">Tidak</text><text fill="#000000" font-family="Arial" font-size="29.1667" lengthAdjust="spacing" textLength="35.6893" x="1004.0487" y="1498.112">Ya</text><line style="stroke:#000000;stroke-width:3.125;" x1="755.9753" x2="755.9753" y1="122.406" y2="2191.7908"/><line style="stroke:#000000;stroke-width:3.125;" x1="1058.4045" x2="1058.4045" y1="122.406" y2="2191.7908"/><line style="stroke:#181818;stroke-width:2.0833;" x1="414.0806" x2="414.0806" y1="208.4412" y2="250.1078"/><polygon fill="#181818" points="405.7472,229.2745,414.0806,250.1078,422.4139,229.2745,414.0806,237.6078" style="stroke:#181818;stroke-width:2.0833;stroke-linejoin:miter;stroke-miterlimit:10;"/><line style="stroke:#181818;stroke-width:2.0833;" x1="414.0806" x2="414.0806" y1="323.3012" y2="364.9679"/><polygon fill="#181818" points="405.7472,344.1345,414.0806,364.9679,422.4139,344.1345,414.0806,352.4679" style="stroke:#181818;stroke-width:2.0833;stroke-linejoin:miter;stroke-miterlimit:10;"/><line style="stroke:#181818;stroke-width:2.0833;" x1="414.0806" x2="414.0806" y1="438.1612" y2="479.8279"/><polygon fill="#181818" points="405.7472,458.9945,414.0806,479.8279,422.4139,458.9945,414.0806,467.3279" style="stroke:#181818;stroke-width:2.0833;stroke-linejoin:miter;stroke-miterlimit:10;"/><line style="stroke:#181818;stroke-width:2.0833;" x1="414.0806" x2="414.0806" y1="553.0212" y2="594.6879"/><polygon fill="#181818" points="405.7472,573.8546,414.0806,594.6879,422.4139,573.8546,414.0806,582.1879" style="stroke:#181818;stroke-width:2.0833;stroke-linejoin:miter;stroke-miterlimit:10;"/><line style="stroke:#181818;stroke-width:2.0833;" x1="414.0806" x2="414.0806" y1="759.5479" y2="814.0238"/><polygon fill="#181818" points="405.7472,793.1905,414.0806,814.0238,422.4139,793.1905,414.0806,801.5238" style="stroke:#181818;stroke-width:2.0833;stroke-linejoin:miter;stroke-miterlimit:10;"/><line style="stroke:#181818;stroke-width:2.0833;" x1="546.2461" x2="651.9956" y1="734.5479" y2="734.5479"/><polygon fill="#181818" points="643.6623,829.7872,651.9956,850.6205,660.3289,829.7872,651.9956,838.1205" style="stroke:#181818;stroke-width:2.0833;stroke-linejoin:miter;stroke-miterlimit:10;"/><line style="stroke:#181818;stroke-width:2.0833;" x1="651.9956" x2="651.9956" y1="734.5479" y2="953.8839"/><line style="stroke:#181818;stroke-width:2.0833;" x1="651.9956" x2="439.0806" y1="953.8839" y2="953.8839"/><polygon fill="#181818" points="459.9139,945.5505,439.0806,953.8839,459.9139,962.2172,451.5806,953.8839" style="stroke:#181818;stroke-width:2.0833;stroke-linejoin:miter;stroke-miterlimit:10;"/><line style="stroke:#181818;stroke-width:2.0833;" x1="414.0806" x2="414.0806" y1="887.2172" y2="928.8839"/><polygon fill="#181818" points="405.7472,908.0505,414.0806,928.8839,422.4139,908.0505,414.0806,916.3839" style="stroke:#181818;stroke-width:2.0833;stroke-linejoin:miter;stroke-miterlimit:10;"/><line style="stroke:#181818;stroke-width:2.0833;" x1="414.0806" x2="414.0806" y1="667.8813" y2="709.5479"/><polygon fill="#181818" points="405.7472,688.7146,414.0806,709.5479,422.4139,688.7146,414.0806,697.0479" style="stroke:#181818;stroke-width:2.0833;stroke-linejoin:miter;stroke-miterlimit:10;"/><line style="stroke:#181818;stroke-width:2.0833;" x1="414.0806" x2="414.0806" y1="978.8839" y2="1020.5505"/><polygon fill="#181818" points="405.7472,999.7172,414.0806,1020.5505,422.4139,999.7172,414.0806,1008.0505" style="stroke:#181818;stroke-width:2.0833;stroke-linejoin:miter;stroke-miterlimit:10;"/><line style="stroke:#181818;stroke-width:2.0833;" x1="414.0806" x2="414.0806" y1="1093.7439" y2="1135.4106"/><polygon fill="#181818" points="405.7472,1114.5772,414.0806,1135.4106,422.4139,1114.5772,414.0806,1122.9106" style="stroke:#181818;stroke-width:2.0833;stroke-linejoin:miter;stroke-miterlimit:10;"/><line style="stroke:#181818;stroke-width:2.0833;" x1="414.0806" x2="414.0806" y1="1208.6039" y2="1250.2706"/><polygon fill="#181818" points="405.7472,1229.4373,414.0806,1250.2706,422.4139,1229.4373,414.0806,1237.7706" style="stroke:#181818;stroke-width:2.0833;stroke-linejoin:miter;stroke-miterlimit:10;"/><line style="stroke:#181818;stroke-width:2.0833;" x1="249.3256" x2="249.3256" y1="1644.8507" y2="1686.5173"/><polygon fill="#181818" points="240.9922,1665.684,249.3256,1686.5173,257.6589,1665.684,249.3256,1674.0173" style="stroke:#181818;stroke-width:2.0833;stroke-linejoin:miter;stroke-miterlimit:10;"/><line style="stroke:#181818;stroke-width:2.0833;" x1="578.8356" x2="578.8356" y1="1644.8507" y2="1686.5173"/><polygon fill="#181818" points="570.5022,1665.684,578.8356,1686.5173,587.1689,1665.684,578.8356,1674.0173" style="stroke:#181818;stroke-width:2.0833;stroke-linejoin:miter;stroke-miterlimit:10;"/><line style="stroke:#181818;stroke-width:2.0833;" x1="578.8356" x2="578.8356" y1="1759.7107" y2="1801.3774"/><polygon fill="#181818" points="570.5022,1780.544,578.8356,1801.3774,587.1689,1780.544,578.8356,1788.8774" style="stroke:#181818;stroke-width:2.0833;stroke-linejoin:miter;stroke-miterlimit:10;"/><line style="stroke:#181818;stroke-width:2.0833;" x1="578.8356" x2="578.8356" y1="1874.5707" y2="1916.2374"/><polygon fill="#181818" points="570.5022,1895.4041,578.8356,1916.2374,587.1689,1895.4041,578.8356,1903.7374" style="stroke:#181818;stroke-width:2.0833;stroke-linejoin:miter;stroke-miterlimit:10;"/><line style="stroke:#181818;stroke-width:2.0833;" x1="414.0806" x2="414.0806" y1="2104.2908" y2="2145.9574"/><polygon fill="#181818" points="405.7472,2125.1241,414.0806,2145.9574,422.4139,2125.1241,414.0806,2133.4574" style="stroke:#181818;stroke-width:2.0833;stroke-linejoin:miter;stroke-miterlimit:10;"/><line style="stroke:#181818;stroke-width:2.0833;" x1="924.8189" x2="924.8189" y1="1438.324" y2="1479.9906"/><polygon fill="#181818" points="916.4856,1459.1573,924.8189,1479.9906,933.1523,1459.1573,924.8189,1467.4906" style="stroke:#181818;stroke-width:2.0833;stroke-linejoin:miter;stroke-miterlimit:10;"/><line style="stroke:#181818;stroke-width:2.0833;" x1="414.0806" x2="414.0806" y1="1323.4639" y2="1333.8806"/><line style="stroke:#181818;stroke-width:2.0833;" x1="414.0806" x2="924.8189" y1="1333.8806" y2="1333.8806"/><line style="stroke:#181818;stroke-width:2.0833;" x1="924.8189" x2="924.8189" y1="1333.8806" y2="1365.1306"/><polygon fill="#181818" points="916.4856,1344.2973,924.8189,1365.1306,933.1523,1344.2973,924.8189,1352.6306" style="stroke:#181818;stroke-width:2.0833;stroke-linejoin:miter;stroke-miterlimit:10;"/><line style="stroke:#181818;stroke-width:2.0833;" x1="845.5892" x2="249.3256" y1="1504.9906" y2="1504.9906"/><line style="stroke:#181818;stroke-width:2.0833;" x1="249.3256" x2="249.3256" y1="1504.9906" y2="1571.6573"/><polygon fill="#181818" points="240.9922,1550.824,249.3256,1571.6573,257.6589,1550.824,249.3256,1559.1573" style="stroke:#181818;stroke-width:2.0833;stroke-linejoin:miter;stroke-miterlimit:10;"/><line style="stroke:#181818;stroke-width:2.0833;" x1="1004.0487" x2="1029.0487" y1="1504.9906" y2="1504.9906"/><line style="stroke:#181818;stroke-width:2.0833;" x1="1029.0487" x2="1029.0487" y1="1504.9906" y2="1542.4906"/><line style="stroke:#181818;stroke-width:2.0833;" x1="1029.0487" x2="578.8356" y1="1542.4906" y2="1542.4906"/><line style="stroke:#181818;stroke-width:2.0833;" x1="578.8356" x2="578.8356" y1="1542.4906" y2="1571.6573"/><polygon fill="#181818" points="570.5022,1550.824,578.8356,1571.6573,587.1689,1550.824,578.8356,1559.1573" style="stroke:#181818;stroke-width:2.0833;stroke-linejoin:miter;stroke-miterlimit:10;"/><line style="stroke:#181818;stroke-width:2.0833;" x1="578.8356" x2="578.8356" y1="1989.4307" y2="1999.8474"/><line style="stroke:#181818;stroke-width:2.0833;" x1="578.8356" x2="414.0806" y1="1999.8474" y2="1999.8474"/><line style="stroke:#181818;stroke-width:2.0833;" x1="414.0806" x2="414.0806" y1="1999.8474" y2="2031.0974"/><polygon fill="#181818" points="405.7472,2010.2641,414.0806,2031.0974,422.4139,2010.2641,414.0806,2018.5974" style="stroke:#181818;stroke-width:2.0833;stroke-linejoin:miter;stroke-miterlimit:10;"/><text fill="#000000" font-family="Arial" font-size="29.1667" lengthAdjust="spacing" textLength="153.3813" x="360.1913" y="149.4792">Pelanggan</text><text fill="#000000" font-family="Arial" font-size="29.1667" lengthAdjust="spacing" textLength="99.6053" x="857.3873" y="149.4792">Sistem</text><?plantuml-src RLF1Rjim3BthAmWC69BBq2NfqCM78KcZou0Xc7lfaOaPcxKi6PAoeKC-VdJYr2fg7mo9xps-9vcE70t1Rtp12kPVPfFzT0aQ0yAceaFjJX4-muviIG4hjB8CQD4g5MgsBNfie6WPPdTtIILKMBY_R4iueWcKSkc89nEri_4NDWGhpsZ6yPp_4NnT963ieWxGGmBX8V8VZgy3EXz17naRPuk1D4j8yXO3TdQ0xnDurVTOuw4klJlPOkECy_19F-ZlUZN6TBuWtxFcbsU4rMVws5Rh-UOn4Unk-JvGjrizqtgKcaPOwCMtxRrIvnqPj6M9zgn25AfQvjHW3T4xmvbQthwyB7Tik08qsE2mhP4AcPPMfa96GZgWpHGVOR8gK42s4CWMxFd756955YRFE5K0ooUAsDOoHQdqeiWKoQ30v8aBhAUganzlTf5yWx37rwlH-n13ESVgsleoe9awvnmYDMSHU1Se3DGkwfhyY-pV4lR60EdjIEJrLGGbbcWogOJesZviVweDjn47NwdatBIYOR5_L__fWhDbbxA_wZTre6Olhbb_yZI4t9hd1YztTlq9CzM5-0y0?></g></svg>