<svg xmlns="http://www.w3.org/2000/svg" xmlns:xlink="http://www.w3.org/1999/xlink" contentStyleType="text/css" data-diagram-type="ACTIVITY" height="2381.25px" preserveAspectRatio="none" style="width:1820px;height:2381px;background:#FFFFFF;" version="1.1" viewBox="0 0 1820 2381" width="1820.8333px" zoomAndPan="magnify"><?plantuml 1.2026.6?><defs/><g><g class="title" data-source-line="1"><text fill="#000000" font-family="Arial" font-size="37.5" font-weight="700" lengthAdjust="spacing" textLength="932.0618" x="442.5243" y="76.475">Rajah 3.2(c): Fasa Penjejakan &amp; Komunikasi</text></g><rect fill="none" height="33.9518" style="stroke:none;stroke-width:2.0833;" width="1723.3604" x="41.6667" y="122.406"/><ellipse cx="548.8131" cy="187.6078" fill="#222222" rx="20.8333" ry="20.8333" style="stroke:#222222;stroke-width:2.0833;"/><rect fill="#F8F9FA" height="73.1934" rx="26.0417" ry="26.0417" style="stroke:#333333;stroke-width:1.0417;" width="341.157" x="378.2346" y="250.1078"/><text fill="#000000" font-family="Arial" font-size="27.0833" lengthAdjust="spacing" textLength="299.4904" x="399.0679" y="296.0805">Lihat senarai pesanan</text><rect fill="#F8F9FA" height="73.1934" rx="26.0417" ry="26.0417" style="stroke:#333333;stroke-width:1.0417;" width="387.1246" x="355.2508" y="364.9679"/><text fill="#000000" font-family="Arial" font-size="27.0833" lengthAdjust="spacing" textLength="345.458" x="376.0841" y="410.9406">Semak status setiap item</text><rect fill="#F8F9FA" height="73.1934" rx="26.0417" ry="26.0417" style="stroke:#333333;stroke-width:1.0417;" width="358.0048" x="369.8107" y="675.9705"/><text fill="#000000" font-family="Arial" font-size="27.0833" lengthAdjust="spacing" textLength="316.3381" x="390.6441" y="721.9432">Hantar mesej sembang</text><polygon fill="#FFF3CD" points="393.6618,571.4945,703.9645,571.4945,728.9645,596.4945,703.9645,621.4945,393.6618,621.4945,368.6618,596.4945,393.6618,571.4945" style="stroke:#856404;stroke-width:1.0417;stroke-linejoin:miter;stroke-miterlimit:10;"/><text fill="#000000" font-family="Arial" font-size="29.1667" lengthAdjust="spacing" textLength="35.6893" x="557.1465" y="648.5677">Ya</text><text fill="#000000" font-family="Arial" font-size="25" lengthAdjust="spacing" textLength="310.3027" x="393.6618" y="605.1493">Perlu sembang penjahit?</text><text fill="#000000" font-family="Arial" font-size="29.1667" lengthAdjust="spacing" textLength="79.1972" x="289.4646" y="589.6159">Tidak</text><polygon fill="#FFF3CD" points="548.8131,936.9405,573.8131,961.9405,548.8131,986.9405,523.8131,961.9405,548.8131,936.9405" style="stroke:#856404;stroke-width:1.0417;stroke-linejoin:miter;stroke-miterlimit:10;"/><polygon fill="#FFF3CD" points="397.3544,1133.0831,700.2719,1133.0831,725.2719,1158.0831,700.2719,1183.0831,397.3544,1183.0831,372.3544,1158.0831,397.3544,1133.0831" style="stroke:#856404;stroke-width:1.0417;stroke-linejoin:miter;stroke-miterlimit:10;"/><text fill="#000000" font-family="Arial" font-size="25" lengthAdjust="spacing" textLength="302.9175" x="397.3544" y="1166.7379">Masih boleh dibatalkan?</text><text fill="#000000" font-family="Arial" font-size="29.1667" lengthAdjust="spacing" textLength="35.6893" x="336.6651" y="1151.2044">Ya</text><text fill="#000000" font-family="Arial" font-size="29.1667" lengthAdjust="spacing" textLength="79.1972" x="725.2719" y="1151.2044">Tidak</text><rect fill="#F8F9FA" height="73.1934" rx="26.0417" ry="26.0417" style="stroke:#333333;stroke-width:1.0417;" width="345.1111" x="135.4167" y="1463.3972"/><text fill="#000000" font-family="Arial" font-size="27.0833" lengthAdjust="spacing" textLength="303.4444" x="156.25" y="1509.3699">Terima notifikasi batal</text><ellipse cx="307.9722" cy="1601.1739" fill="none" rx="22.9167" ry="22.9167" style="stroke:#222222;stroke-width:2.0833;"/><ellipse cx="307.9722" cy="1601.1739" fill="#222222" rx="12.5" ry="12.5" style="stroke:#222222;stroke-width:2.0833;"/><rect fill="#F8F9FA" height="73.1934" rx="26.0417" ry="26.0417" style="stroke:#333333;stroke-width:1.0417;" width="447.2158" x="566.0461" y="1224.7498"/><text fill="#000000" font-family="Arial" font-size="27.0833" lengthAdjust="spacing" textLength="405.5491" x="586.8795" y="1270.7225">Papar mesej tidak dibenarkan</text><polygon fill="#FFF3CD" points="449.4662,1028.6072,648.16,1028.6072,673.16,1053.6072,648.16,1078.6072,449.4662,1078.6072,424.4662,1053.6072,449.4662,1028.6072" style="stroke:#856404;stroke-width:1.0417;stroke-linejoin:miter;stroke-miterlimit:10;"/><text fill="#000000" font-family="Arial" font-size="29.1667" lengthAdjust="spacing" textLength="35.6893" x="557.1465" y="1105.6803">Ya</text><text fill="#000000" font-family="Arial" font-size="25" lengthAdjust="spacing" textLength="198.6938" x="449.4662" y="1062.262">Mahu batalkan?</text><text fill="#000000" font-family="Arial" font-size="29.1667" lengthAdjust="spacing" textLength="79.1972" x="345.269" y="1046.7285">Tidak</text><polygon fill="#FFF3CD" points="548.8131,1665.7572,573.8131,1690.7572,548.8131,1715.7572,523.8131,1690.7572,548.8131,1665.7572" style="stroke:#856404;stroke-width:1.0417;stroke-linejoin:miter;stroke-miterlimit:10;"/><polygon fill="#FFF3CD" points="419.5956,1757.4239,678.0306,1757.4239,703.0306,1782.4239,678.0306,1807.4239,419.5956,1807.4239,394.5956,1782.4239,419.5956,1757.4239" style="stroke:#856404;stroke-width:1.0417;stroke-linejoin:miter;stroke-miterlimit:10;"/><text fill="#000000" font-family="Arial" font-size="25" lengthAdjust="spacing" textLength="258.4351" x="419.5956" y="1791.0787">Semua item selesai?</text><text fill="#000000" font-family="Arial" font-size="29.1667" lengthAdjust="spacing" textLength="35.6893" x="358.9063" y="1775.5452">Ya</text><text fill="#000000" font-family="Arial" font-size="29.1667" lengthAdjust="spacing" textLength="79.1972" x="703.0306" y="1775.5452">Tidak</text><rect fill="#F8F9FA" height="73.1934" rx="26.0417" ry="26.0417" style="stroke:#333333;stroke-width:1.0417;" width="335.4574" x="171.962" y="1849.0906"/><text fill="#000000" font-family="Arial" font-size="27.0833" lengthAdjust="spacing" textLength="293.7907" x="192.7953" y="1895.0633">Hantar ulasan produk</text><rect fill="#F8F9FA" height="73.1934" rx="26.0417" ry="26.0417" style="stroke:#333333;stroke-width:1.0417;" width="417.6992" x="549.086" y="1849.0906"/><text fill="#000000" font-family="Arial" font-size="27.0833" lengthAdjust="spacing" textLength="376.0325" x="569.9193" y="1895.0633">Tunggu kemas kini penjahit</text><polygon fill="#FFF3CD" points="548.8131,479.8279,573.8131,504.8279,548.8131,529.8279,523.8131,504.8279,548.8131,479.8279" style="stroke:#856404;stroke-width:1.0417;stroke-linejoin:miter;stroke-miterlimit:10;"/><polygon fill="#FFF3CD" points="415.9091,2078.8106,681.7172,2078.8106,706.7172,2103.8106,681.7172,2128.8106,415.9091,2128.8106,390.9091,2103.8106,415.9091,2078.8106" style="stroke:#856404;stroke-width:1.0417;stroke-linejoin:miter;stroke-miterlimit:10;"/><text fill="#000000" font-family="Arial" font-size="29.1667" lengthAdjust="spacing" textLength="79.1972" x="557.1465" y="2155.8838">Tidak</text><text fill="#000000" font-family="Arial" font-size="25" lengthAdjust="spacing" textLength="265.8081" x="415.9091" y="2112.4654">Pesanan masih aktif?</text><text fill="#000000" font-family="Arial" font-size="29.1667" lengthAdjust="spacing" textLength="35.6893" x="706.7172" y="2096.932">Ya</text><polygon fill="#FFF3CD" points="548.8131,2200.6755,573.8131,2225.6755,548.8131,2250.6755,523.8131,2225.6755,548.8131,2200.6755" style="stroke:#856404;stroke-width:1.0417;stroke-linejoin:miter;stroke-miterlimit:10;"/><ellipse cx="548.8131" cy="2315.2588" fill="none" rx="22.9167" ry="22.9167" style="stroke:#222222;stroke-width:2.0833;"/><ellipse cx="548.8131" cy="2315.2588" fill="#222222" rx="12.5" ry="12.5" style="stroke:#222222;stroke-width:2.0833;"/><line style="stroke:#000000;stroke-width:3.125;" x1="41.6667" x2="41.6667" y1="122.406" y2="2338.1755"/><rect fill="#F8F9FA" height="73.1934" rx="26.0417" ry="26.0417" style="stroke:#333333;stroke-width:1.0417;" width="525.5961" x="1228.5454" y="822.0805"/><text fill="#000000" font-family="Arial" font-size="27.0833" lengthAdjust="spacing" textLength="483.9294" x="1249.3787" y="868.0532">Simpan mesej &amp; kemas kini bacaan</text><rect fill="#F8F9FA" height="73.1934" rx="26.0417" ry="26.0417" style="stroke:#333333;stroke-width:1.0417;" width="432.8145" x="1034.0953" y="1224.7498"/><text fill="#000000" font-family="Arial" font-size="27.0833" lengthAdjust="spacing" textLength="391.1479" x="1054.9286" y="1270.7225">Kemas kini status dibatalkan</text><rect fill="#F8F9FA" height="73.1934" rx="26.0417" ry="26.0417" style="stroke:#333333;stroke-width:1.0417;" width="375.4344" x="1062.7853" y="1339.6098"/><text fill="#000000" font-family="Arial" font-size="27.0833" lengthAdjust="spacing" textLength="333.7677" x="1083.6187" y="1385.5825">Rekod audit pembatalan</text><rect fill="#F8F9FA" height="73.1934" rx="26.0417" ry="26.0417" style="stroke:#333333;stroke-width:1.0417;" width="241.4856" x="1161.4782" y="1963.9506"/><text fill="#000000" font-family="Arial" font-size="27.0833" lengthAdjust="spacing" textLength="199.8189" x="1182.3115" y="2009.9233">Simpan ulasan</text><line style="stroke:#000000;stroke-width:3.125;" x1="1021.5953" x2="1021.5953" y1="122.406" y2="2338.1755"/><line style="stroke:#000000;stroke-width:3.125;" x1="1762.4748" x2="1762.4748" y1="122.406" y2="2338.1755"/><line style="stroke:#181818;stroke-width:2.0833;" x1="548.8131" x2="548.8131" y1="208.4412" y2="250.1078"/><polygon fill="#181818" points="540.4798,229.2745,548.8131,250.1078,557.1465,229.2745,548.8131,237.6078" style="stroke:#181818;stroke-width:2.0833;stroke-linejoin:miter;stroke-miterlimit:10;"/><line style="stroke:#181818;stroke-width:2.0833;" x1="548.8131" x2="548.8131" y1="323.3012" y2="364.9679"/><polygon fill="#181818" points="540.4798,344.1345,548.8131,364.9679,557.1465,344.1345,548.8131,352.4679" style="stroke:#181818;stroke-width:2.0833;stroke-linejoin:miter;stroke-miterlimit:10;"/><line style="stroke:#181818;stroke-width:2.0833;" x1="548.8131" x2="548.8131" y1="621.4945" y2="675.9705"/><polygon fill="#181818" points="540.4798,655.1371,548.8131,675.9705,557.1465,655.1371,548.8131,663.4705" style="stroke:#181818;stroke-width:2.0833;stroke-linejoin:miter;stroke-miterlimit:10;"/><line style="stroke:#181818;stroke-width:2.0833;" x1="368.6618" x2="265.1817" y1="596.4945" y2="596.4945"/><polygon fill="#181818" points="256.8484,764.7888,265.1817,785.6222,273.5151,764.7888,265.1817,773.1222" style="stroke:#181818;stroke-width:2.0833;stroke-linejoin:miter;stroke-miterlimit:10;"/><line style="stroke:#181818;stroke-width:2.0833;" x1="265.1817" x2="265.1817" y1="596.4945" y2="961.9405"/><line style="stroke:#181818;stroke-width:2.0833;" x1="265.1817" x2="523.8131" y1="961.9405" y2="961.9405"/><polygon fill="#181818" points="502.9798,953.6072,523.8131,961.9405,502.9798,970.2738,511.3131,961.9405" style="stroke:#181818;stroke-width:2.0833;stroke-linejoin:miter;stroke-miterlimit:10;"/><line style="stroke:#181818;stroke-width:2.0833;" x1="307.9722" x2="307.9722" y1="1536.5906" y2="1578.2572"/><polygon fill="#181818" points="299.6389,1557.4239,307.9722,1578.2572,316.3055,1557.4239,307.9722,1565.7572" style="stroke:#181818;stroke-width:2.0833;stroke-linejoin:miter;stroke-miterlimit:10;"/><line style="stroke:#181818;stroke-width:2.0833;" x1="725.2719" x2="789.654" y1="1158.0831" y2="1158.0831"/><line style="stroke:#181818;stroke-width:2.0833;" x1="789.654" x2="789.654" y1="1158.0831" y2="1224.7498"/><polygon fill="#181818" points="781.3207,1203.9164,789.654,1224.7498,797.9874,1203.9164,789.654,1212.2498" style="stroke:#181818;stroke-width:2.0833;stroke-linejoin:miter;stroke-miterlimit:10;"/><line style="stroke:#181818;stroke-width:2.0833;" x1="789.654" x2="789.654" y1="1297.9431" y2="1634.5072"/><line style="stroke:#181818;stroke-width:2.0833;" x1="789.654" x2="548.8131" y1="1634.5072" y2="1634.5072"/><line style="stroke:#181818;stroke-width:2.0833;" x1="548.8131" x2="548.8131" y1="1634.5072" y2="1665.7572"/><polygon fill="#181818" points="540.4798,1644.9239,548.8131,1665.7572,557.1465,1644.9239,548.8131,1653.2572" style="stroke:#181818;stroke-width:2.0833;stroke-linejoin:miter;stroke-miterlimit:10;"/><line style="stroke:#181818;stroke-width:2.0833;" x1="548.8131" x2="548.8131" y1="1078.6072" y2="1133.0831"/><polygon fill="#181818" points="540.4798,1112.2498,548.8131,1133.0831,557.1465,1112.2498,548.8131,1120.5831" style="stroke:#181818;stroke-width:2.0833;stroke-linejoin:miter;stroke-miterlimit:10;"/><line style="stroke:#181818;stroke-width:2.0833;" x1="424.4662" x2="106.25" y1="1053.6072" y2="1053.6072"/><polygon fill="#181818" points="97.9167,1385.5815,106.25,1406.4148,114.5833,1385.5815,106.25,1393.9148" style="stroke:#181818;stroke-width:2.0833;stroke-linejoin:miter;stroke-miterlimit:10;"/><line style="stroke:#181818;stroke-width:2.0833;" x1="106.25" x2="106.25" y1="1053.6072" y2="1690.7572"/><line style="stroke:#181818;stroke-width:2.0833;" x1="106.25" x2="523.8131" y1="1690.7572" y2="1690.7572"/><polygon fill="#181818" points="502.9798,1682.4239,523.8131,1690.7572,502.9798,1699.0906,511.3131,1690.7572" style="stroke:#181818;stroke-width:2.0833;stroke-linejoin:miter;stroke-miterlimit:10;"/><line style="stroke:#181818;stroke-width:2.0833;" x1="548.8131" x2="548.8131" y1="986.9405" y2="1028.6072"/><polygon fill="#181818" points="540.4798,1007.7738,548.8131,1028.6072,557.1465,1007.7738,548.8131,1016.1072" style="stroke:#181818;stroke-width:2.0833;stroke-linejoin:miter;stroke-miterlimit:10;"/><line style="stroke:#181818;stroke-width:2.0833;" x1="394.5956" x2="339.6907" y1="1782.4239" y2="1782.4239"/><line style="stroke:#181818;stroke-width:2.0833;" x1="339.6907" x2="339.6907" y1="1782.4239" y2="1849.0906"/><polygon fill="#181818" points="331.3573,1828.2572,339.6907,1849.0906,348.024,1828.2572,339.6907,1836.5906" style="stroke:#181818;stroke-width:2.0833;stroke-linejoin:miter;stroke-miterlimit:10;"/><line style="stroke:#181818;stroke-width:2.0833;" x1="703.0306" x2="757.9356" y1="1782.4239" y2="1782.4239"/><line style="stroke:#181818;stroke-width:2.0833;" x1="757.9356" x2="757.9356" y1="1782.4239" y2="1849.0906"/><polygon fill="#181818" points="749.6023,1828.2572,757.9356,1849.0906,766.2689,1828.2572,757.9356,1836.5906" style="stroke:#181818;stroke-width:2.0833;stroke-linejoin:miter;stroke-miterlimit:10;"/><line style="stroke:#181818;stroke-width:2.0833;" x1="757.9356" x2="757.9356" y1="1922.2839" y2="2047.5606"/><line style="stroke:#181818;stroke-width:2.0833;" x1="757.9356" x2="548.8131" y1="2047.5606" y2="2047.5606"/><line style="stroke:#181818;stroke-width:2.0833;" x1="548.8131" x2="548.8131" y1="2047.5606" y2="2078.8106"/><polygon fill="#181818" points="540.4798,2057.9773,548.8131,2078.8106,557.1465,2057.9773,548.8131,2066.3106" style="stroke:#181818;stroke-width:2.0833;stroke-linejoin:miter;stroke-miterlimit:10;"/><line style="stroke:#181818;stroke-width:2.0833;" x1="548.8131" x2="548.8131" y1="1715.7572" y2="1757.4239"/><polygon fill="#181818" points="540.4798,1736.5906,548.8131,1757.4239,557.1465,1736.5906,548.8131,1744.9239" style="stroke:#181818;stroke-width:2.0833;stroke-linejoin:miter;stroke-miterlimit:10;"/><line style="stroke:#181818;stroke-width:2.0833;" x1="548.8131" x2="548.8131" y1="529.8279" y2="571.4945"/><polygon fill="#181818" points="540.4798,550.6612,548.8131,571.4945,557.1465,550.6612,548.8131,558.9945" style="stroke:#181818;stroke-width:2.0833;stroke-linejoin:miter;stroke-miterlimit:10;"/><line style="stroke:#181818;stroke-width:2.0833;" x1="390.9091" x2="81.25" y1="2103.8106" y2="2103.8106"/><polygon fill="#181818" points="72.9167,1421.7306,81.25,1400.8972,89.5833,1421.7306,81.25,1413.3972" style="stroke:#181818;stroke-width:2.0833;stroke-linejoin:miter;stroke-miterlimit:10;"/><line style="stroke:#181818;stroke-width:2.0833;" x1="81.25" x2="81.25" y1="504.8279" y2="2103.8106"/><line style="stroke:#181818;stroke-width:2.0833;" x1="81.25" x2="523.8131" y1="504.8279" y2="504.8279"/><polygon fill="#181818" points="502.9798,496.4945,523.8131,504.8279,502.9798,513.1612,511.3131,504.8279" style="stroke:#181818;stroke-width:2.0833;stroke-linejoin:miter;stroke-miterlimit:10;"/><line style="stroke:#181818;stroke-width:2.0833;" x1="548.8131" x2="548.8131" y1="2128.8106" y2="2200.6755"/><polygon fill="#181818" points="540.4798,2179.8421,548.8131,2200.6755,557.1465,2179.8421,548.8131,2188.1755" style="stroke:#181818;stroke-width:2.0833;stroke-linejoin:miter;stroke-miterlimit:10;"/><line style="stroke:#181818;stroke-width:2.0833;" x1="1282.221" x2="1282.221" y1="2037.144" y2="2047.5606"/><line style="stroke:#181818;stroke-width:2.0833;" x1="1282.221" x2="85.4167" y1="2047.5606" y2="2047.5606"/><line style="stroke:#181818;stroke-width:2.0833;" x1="85.4167" x2="85.4167" y1="2047.5606" y2="2225.6755"/><line style="stroke:#181818;stroke-width:2.0833;" x1="85.4167" x2="523.8131" y1="2225.6755" y2="2225.6755"/><polygon fill="#181818" points="502.9798,2217.3421,523.8131,2225.6755,502.9798,2234.0088,511.3131,2225.6755" style="stroke:#181818;stroke-width:2.0833;stroke-linejoin:miter;stroke-miterlimit:10;"/><line style="stroke:#181818;stroke-width:2.0833;" x1="548.8131" x2="548.8131" y1="438.1612" y2="479.8279"/><polygon fill="#181818" points="540.4798,458.9945,548.8131,479.8279,557.1465,458.9945,548.8131,467.3279" style="stroke:#181818;stroke-width:2.0833;stroke-linejoin:miter;stroke-miterlimit:10;"/><line style="stroke:#181818;stroke-width:2.0833;" x1="548.8131" x2="548.8131" y1="2250.6755" y2="2292.3421"/><polygon fill="#181818" points="540.4798,2271.5088,548.8131,2292.3421,557.1465,2271.5088,548.8131,2279.8421" style="stroke:#181818;stroke-width:2.0833;stroke-linejoin:miter;stroke-miterlimit:10;"/><line style="stroke:#181818;stroke-width:2.0833;" x1="1250.5025" x2="1250.5025" y1="1297.9431" y2="1339.6098"/><polygon fill="#181818" points="1242.1692,1318.7764,1250.5025,1339.6098,1258.8359,1318.7764,1250.5025,1327.1098" style="stroke:#181818;stroke-width:2.0833;stroke-linejoin:miter;stroke-miterlimit:10;"/><line style="stroke:#181818;stroke-width:2.0833;" x1="548.8131" x2="548.8131" y1="749.1638" y2="785.6222"/><line style="stroke:#181818;stroke-width:2.0833;" x1="548.8131" x2="1491.3434" y1="785.6222" y2="785.6222"/><line style="stroke:#181818;stroke-width:2.0833;" x1="1491.3434" x2="1491.3434" y1="785.6222" y2="822.0805"/><polygon fill="#181818" points="1483.0101,801.2472,1491.3434,822.0805,1499.6768,801.2472,1491.3434,809.5805" style="stroke:#181818;stroke-width:2.0833;stroke-linejoin:miter;stroke-miterlimit:10;"/><line style="stroke:#181818;stroke-width:2.0833;" x1="1491.3434" x2="1491.3434" y1="895.2738" y2="909.7026"/><line style="stroke:#181818;stroke-width:2.0833;" x1="1491.3434" x2="548.8131" y1="909.7026" y2="909.7026"/><line style="stroke:#181818;stroke-width:2.0833;" x1="548.8131" x2="548.8131" y1="909.7026" y2="936.9405"/><polygon fill="#181818" points="540.4798,916.1072,548.8131,936.9405,557.1465,916.1072,548.8131,924.4405" style="stroke:#181818;stroke-width:2.0833;stroke-linejoin:miter;stroke-miterlimit:10;"/><line style="stroke:#181818;stroke-width:2.0833;" x1="1250.5025" x2="1250.5025" y1="1412.8031" y2="1432.1472"/><line style="stroke:#181818;stroke-width:2.0833;" x1="1250.5025" x2="307.9722" y1="1432.1472" y2="1432.1472"/><line style="stroke:#181818;stroke-width:2.0833;" x1="307.9722" x2="307.9722" y1="1432.1472" y2="1463.3972"/><polygon fill="#181818" points="299.6389,1442.5639,307.9722,1463.3972,316.3055,1442.5639,307.9722,1450.8972" style="stroke:#181818;stroke-width:2.0833;stroke-linejoin:miter;stroke-miterlimit:10;"/><line style="stroke:#181818;stroke-width:2.0833;" x1="372.3544" x2="347.3544" y1="1158.0831" y2="1158.0831"/><line style="stroke:#181818;stroke-width:2.0833;" x1="347.3544" x2="347.3544" y1="1158.0831" y2="1195.5831"/><line style="stroke:#181818;stroke-width:2.0833;" x1="347.3544" x2="1250.5025" y1="1195.5831" y2="1195.5831"/><line style="stroke:#181818;stroke-width:2.0833;" x1="1250.5025" x2="1250.5025" y1="1195.5831" y2="1224.7498"/><polygon fill="#181818" points="1242.1692,1203.9164,1250.5025,1224.7498,1258.8359,1203.9164,1250.5025,1212.2498" style="stroke:#181818;stroke-width:2.0833;stroke-linejoin:miter;stroke-miterlimit:10;"/><line style="stroke:#181818;stroke-width:2.0833;" x1="339.6907" x2="339.6907" y1="1922.2839" y2="1932.7006"/><line style="stroke:#181818;stroke-width:2.0833;" x1="339.6907" x2="1282.221" y1="1932.7006" y2="1932.7006"/><line style="stroke:#181818;stroke-width:2.0833;" x1="1282.221" x2="1282.221" y1="1932.7006" y2="1963.9506"/><polygon fill="#181818" points="1273.8876,1943.1173,1282.221,1963.9506,1290.5543,1943.1173,1282.221,1951.4506" style="stroke:#181818;stroke-width:2.0833;stroke-linejoin:miter;stroke-miterlimit:10;"/><text fill="#000000" font-family="Arial" font-size="29.1667" lengthAdjust="spacing" textLength="153.3813" x="454.9403" y="149.4792">Pelanggan</text><text fill="#000000" font-family="Arial" font-size="29.1667" lengthAdjust="spacing" textLength="310.0382" x="1237.0159" y="149.4792">Sistem Busana Prima</text><?plantuml-src ZLHDRzf04BtlhnYfKWINAWKI4JXKvCEgbBQo0fSU1ppWmVQkvTrjr8eVt_4QiDiug1mGuhqtysRcsOvTJl22UqnX_74qs0nd4A55Y4dlQOyPQhY2PrDupHbQLifch4kii82aP1XTNtV-iIacvfNr3hQOM-foQOi-Tv7HxZiM18kACU_7b_oRuDEa0xhQP0jDEn1k7Fzazwj5npte8sDXTDAIHXsIV4i3Dhg5RphmubZZ7ZVPhZ9U9mycDnLyYARHNRJeOvegeUh86eTF3-lewMtPA1e_F5uGTAjFRsudrzrLnQTXtjHzUef6KTHBxLQSH9FRfnkb3Z7bg7Sxr0TbdL3Lx2kdwC2I5Zb3IHOrwhcQBQd038Jal1NOCPR0ZegvKXMLX4u1y1O6CLMv5qAnbiAYrn8wTf-7u5BICFY1Go42pBwWbePGaANzYJuFq679LWh3lQzxGrnnWOT6jEIYbAmseYl8n9C5cPLXZHkiVOO2dQa0I38AWnKdcDMjIIUyLKUptp3r8dMOooFmncF3i9p2skIKGiBlKY-v5j_FhT7Z1jjQynFfXJAJ0Fg4dUoj27WB_prK4AoeRWBQEDw6vxOPvQImpfJXvpyR2DeOo_FsNOtKZkgZdnqrYxgyFmc5nn03EM4kMU5t3-rpUU5eA2kJ-En_3zs8-guAiAu8CzKptMpbXUQxwJZ5S7uUeCailAOiRqO9ROWv5E7QcCb2PH2sOOnwmUS6Acpr3m00?></g></svg>