<svg xmlns="http://www.w3.org/2000/svg" xmlns:xlink="http://www.w3.org/1999/xlink" contentStyleType="text/css" data-diagram-type="ACTIVITY" height="3027.0833px" preserveAspectRatio="none" style="width:1329px;height:3027px;background:#FFFFFF;" version="1.1" viewBox="0 0 1329 3027" width="1329.1667px" zoomAndPan="magnify"><?plantuml 1.2026.6?><defs/><g><g class="title" data-source-line="1"><text fill="#000000" font-family="Arial" font-size="37.5" font-weight="700" lengthAdjust="spacing" textLength="1071.0754" x="127.4108" y="76.475">Rajah 3.2(a): Fasa Autentikasi &amp; Pemilihan Produk</text></g><rect fill="none" height="33.9518" style="stroke:none;stroke-width:2.0833;" width="1232.147" x="41.6667" y="122.406"/><ellipse cx="407.2489" cy="187.6078" fill="#222222" rx="20.8333" ry="20.8333" style="stroke:#222222;stroke-width:2.0833;"/><rect fill="#F8F9FA" height="73.1934" rx="26.0417" ry="26.0417" style="stroke:#333333;stroke-width:1.0417;" width="421.2565" x="196.6207" y="250.1078"/><text fill="#000000" font-family="Arial" font-size="27.0833" lengthAdjust="spacing" textLength="379.5898" x="217.454" y="296.0805">Mula menggunakan aplikasi</text><rect fill="#F8F9FA" height="73.1934" rx="26.0417" ry="26.0417" style="stroke:#333333;stroke-width:1.0417;" width="323.2778" x="245.61" y="469.4438"/><text fill="#000000" font-family="Arial" font-size="27.0833" lengthAdjust="spacing" textLength="281.6111" x="266.4434" y="515.4165">Daftar akaun baharu</text><rect fill="#F8F9FA" height="73.1934" rx="26.0417" ry="26.0417" style="stroke:#333333;stroke-width:1.0417;" width="227.6794" x="293.4092" y="699.1638"/><text fill="#000000" font-family="Arial" font-size="27.0833" lengthAdjust="spacing" textLength="186.0128" x="314.2426" y="745.1365">Sahkan e-mel</text><polygon fill="#FFF3CD" points="291.6361,364.9679,522.8617,364.9679,547.8617,389.9679,522.8617,414.9679,291.6361,414.9679,266.6361,389.9679,291.6361,364.9679" style="stroke:#333333;stroke-width:1.0417;stroke-linejoin:miter;stroke-miterlimit:10;"/><text fill="#000000" font-family="Arial" font-size="29.1667" lengthAdjust="spacing" textLength="79.1972" x="415.5823" y="442.041">Tidak</text><text fill="#000000" font-family="Arial" font-size="25" lengthAdjust="spacing" textLength="231.2256" x="291.6361" y="398.6226">Sudah ada akaun?</text><text fill="#000000" font-family="Arial" font-size="29.1667" lengthAdjust="spacing" textLength="35.6893" x="230.9469" y="383.0892">Ya</text><polygon fill="#FFF3CD" points="407.2489,814.0238,432.2489,839.0238,407.2489,864.0238,382.2489,839.0238,407.2489,814.0238" style="stroke:#333333;stroke-width:1.0417;stroke-linejoin:miter;stroke-miterlimit:10;"/><rect fill="#F8F9FA" height="73.1934" rx="26.0417" ry="26.0417" style="stroke:#333333;stroke-width:1.0417;" width="189.0645" x="312.7167" y="905.6905"/><text fill="#000000" font-family="Arial" font-size="27.0833" lengthAdjust="spacing" textLength="147.3979" x="333.55" y="951.6632">Log masuk</text><rect fill="#F8F9FA" height="73.1934" rx="26.0417" ry="26.0417" style="stroke:#333333;stroke-width:1.0417;" width="190.5986" x="167.7216" y="1112.2172"/><text fill="#000000" font-family="Arial" font-size="27.0833" lengthAdjust="spacing" textLength="148.9319" x="188.5549" y="1158.1899">Papar ralat</text><ellipse cx="263.0208" cy="1249.9939" fill="none" rx="22.9167" ry="22.9167" style="stroke:#222222;stroke-width:2.0833;"/><ellipse cx="263.0208" cy="1249.9939" fill="#222222" rx="12.5" ry="12.5" style="stroke:#222222;stroke-width:2.0833;"/><rect fill="#F8F9FA" height="73.1934" rx="26.0417" ry="26.0417" style="stroke:#333333;stroke-width:1.0417;" width="290.9576" x="405.9982" y="1112.2172"/><text fill="#000000" font-family="Arial" font-size="27.0833" lengthAdjust="spacing" textLength="249.291" x="426.8316" y="1158.1899">Akses skrin utama</text><rect fill="#F8F9FA" height="73.1934" rx="26.0417" ry="26.0417" style="stroke:#333333;stroke-width:1.0417;" width="234.0271" x="290.2354" y="1406.2439"/><text fill="#000000" font-family="Arial" font-size="27.0833" lengthAdjust="spacing" textLength="192.3604" x="311.0687" y="1452.2166">Layari katalog</text><rect fill="#F8F9FA" height="73.1934" rx="26.0417" ry="26.0417" style="stroke:#333333;stroke-width:1.0417;" width="269.5211" x="272.4884" y="1521.1039"/><text fill="#000000" font-family="Arial" font-size="27.0833" lengthAdjust="spacing" textLength="227.8544" x="293.3217" y="1567.0766">Pilih reka bentuk</text><polygon fill="#FFF3CD" points="341.0624,1635.9639,473.4355,1635.9639,498.4355,1660.9639,473.4355,1685.9639,341.0624,1685.9639,316.0624,1660.9639,341.0624,1635.9639" style="stroke:#333333;stroke-width:1.0417;stroke-linejoin:miter;stroke-miterlimit:10;"/><text fill="#000000" font-family="Arial" font-size="25" lengthAdjust="spacing" textLength="132.373" x="341.0624" y="1669.6187">Jenis kain?</text><text fill="#000000" font-family="Arial" font-size="29.1667" lengthAdjust="spacing" textLength="101.6561" x="214.4063" y="1654.0853">Sendiri</text><text fill="#000000" font-family="Arial" font-size="29.1667" lengthAdjust="spacing" textLength="118.0196" x="498.4355" y="1654.0853">Penjahit</text><rect fill="#F8F9FA" height="73.1934" rx="26.0417" ry="26.0417" style="stroke:#333333;stroke-width:1.0417;" width="200.6358" x="180.9959" y="1706.7973"/><text fill="#000000" font-family="Arial" font-size="27.0833" lengthAdjust="spacing" textLength="158.9691" x="201.8293" y="1752.77">Kain sendiri</text><rect fill="#F8F9FA" height="73.1934" rx="26.0417" ry="26.0417" style="stroke:#333333;stroke-width:1.0417;" width="219.7713" x="423.2984" y="1706.7973"/><text fill="#000000" font-family="Arial" font-size="27.0833" lengthAdjust="spacing" textLength="178.1047" x="444.1317" y="1752.77">Kain penjahit</text><polygon fill="#FFF3CD" points="407.2489,1792.4906,432.2489,1817.4906,407.2489,1842.4906,382.2489,1817.4906,407.2489,1792.4906" style="stroke:#333333;stroke-width:1.0417;stroke-linejoin:miter;stroke-miterlimit:10;"/><rect fill="#F8F9FA" height="73.1934" rx="26.0417" ry="26.0417" style="stroke:#333333;stroke-width:1.0417;" width="189.9902" x="312.2538" y="1884.1573"/><text fill="#000000" font-family="Arial" font-size="27.0833" lengthAdjust="spacing" textLength="148.3236" x="333.0872" y="1930.13">Pilih warna</text><polygon fill="#FFF3CD" points="355.5827,1999.0173,458.9152,1999.0173,483.9152,2024.0173,458.9152,2049.0173,355.5827,2049.0173,330.5827,2024.0173,355.5827,1999.0173" style="stroke:#333333;stroke-width:1.0417;stroke-linejoin:miter;stroke-miterlimit:10;"/><text fill="#000000" font-family="Arial" font-size="25" lengthAdjust="spacing" textLength="103.3325" x="355.5827" y="2032.6721">Ukuran?</text><text fill="#000000" font-family="Arial" font-size="29.1667" lengthAdjust="spacing" textLength="224.3327" x="106.25" y="2017.1387">Profil sedia ada</text><text fill="#000000" font-family="Arial" font-size="29.1667" lengthAdjust="spacing" textLength="237.4491" x="483.9152" y="2017.1387">Imbasan baharu</text><rect fill="#F8F9FA" height="73.1934" rx="26.0417" ry="26.0417" style="stroke:#333333;stroke-width:1.0417;" width="175.827" x="173.2135" y="2090.684"/><text fill="#000000" font-family="Arial" font-size="27.0833" lengthAdjust="spacing" textLength="134.1604" x="194.0468" y="2136.6567">Pilih profil</text><rect fill="#F8F9FA" height="73.1934" rx="26.0417" ry="26.0417" style="stroke:#333333;stroke-width:1.0417;" width="214.0055" x="446.3682" y="2090.684"/><text fill="#000000" font-family="Arial" font-size="27.0833" lengthAdjust="spacing" textLength="172.3389" x="467.2015" y="2136.6567">Digital Tailor</text><polygon fill="#FFF3CD" points="407.2489,2299.5707,432.2489,2324.5707,407.2489,2349.5707,382.2489,2324.5707,407.2489,2299.5707" style="stroke:#333333;stroke-width:1.0417;stroke-linejoin:miter;stroke-miterlimit:10;"/><rect fill="#F8F9FA" height="73.1934" rx="26.0417" ry="26.0417" style="stroke:#333333;stroke-width:1.0417;" width="290.4022" x="262.0478" y="2495.7133"/><text fill="#000000" font-family="Arial" font-size="27.0833" lengthAdjust="spacing" textLength="248.7356" x="282.8812" y="2541.686">Pratonton pakaian</text><polygon fill="#FFF3CD" points="358.1706,2391.2374,456.3273,2391.2374,481.3273,2416.2374,456.3273,2441.2374,358.1706,2441.2374,333.1706,2416.2374,358.1706,2391.2374" style="stroke:#333333;stroke-width:1.0417;stroke-linejoin:miter;stroke-miterlimit:10;"/><text fill="#000000" font-family="Arial" font-size="29.1667" lengthAdjust="spacing" textLength="35.6893" x="415.5823" y="2468.3105">Ya</text><text fill="#000000" font-family="Arial" font-size="25" lengthAdjust="spacing" textLength="98.1567" x="358.1706" y="2424.8922">Try-On?</text><text fill="#000000" font-family="Arial" font-size="29.1667" lengthAdjust="spacing" textLength="79.1972" x="481.3273" y="2409.3587">Tidak</text><polygon fill="#FFF3CD" points="407.2489,2610.5733,432.2489,2635.5733,407.2489,2660.5733,382.2489,2635.5733,407.2489,2610.5733" style="stroke:#333333;stroke-width:1.0417;stroke-linejoin:miter;stroke-miterlimit:10;"/><rect fill="#F8F9FA" height="73.1934" rx="26.0417" ry="26.0417" style="stroke:#333333;stroke-width:1.0417;" width="255.0802" x="279.7089" y="2702.24"/><text fill="#000000" font-family="Arial" font-size="27.0833" lengthAdjust="spacing" textLength="213.4135" x="300.5422" y="2748.2127">Tambah ke troli</text><polygon fill="#FFF3CD" points="407.2489,1314.5772,432.2489,1339.5772,407.2489,1364.5772,382.2489,1339.5772,407.2489,1314.5772" style="stroke:#333333;stroke-width:1.0417;stroke-linejoin:miter;stroke-miterlimit:10;"/><polygon fill="#FFF3CD" points="345.6584,2817.1,468.8395,2817.1,493.8395,2842.1,468.8395,2867.1,345.6584,2867.1,320.6584,2842.1,345.6584,2817.1" style="stroke:#333333;stroke-width:1.0417;stroke-linejoin:miter;stroke-miterlimit:10;"/><text fill="#000000" font-family="Arial" font-size="29.1667" lengthAdjust="spacing" textLength="79.1972" x="415.5823" y="2894.1732">Tidak</text><text fill="#000000" font-family="Arial" font-size="25" lengthAdjust="spacing" textLength="123.1812" x="345.6584" y="2850.7548">Item lain?</text><text fill="#000000" font-family="Arial" font-size="29.1667" lengthAdjust="spacing" textLength="35.6893" x="493.8395" y="2835.2214">Ya</text><ellipse cx="407.2489" cy="2961.8815" fill="none" rx="22.9167" ry="22.9167" style="stroke:#222222;stroke-width:2.0833;"/><ellipse cx="407.2489" cy="2961.8815" fill="#222222" rx="12.5" ry="12.5" style="stroke:#222222;stroke-width:2.0833;"/><line style="stroke:#000000;stroke-width:3.125;" x1="41.6667" x2="41.6667" y1="122.406" y2="2984.7982"/><rect fill="#F8F9FA" height="73.1934" rx="26.0417" ry="26.0417" style="stroke:#333333;stroke-width:1.0417;" width="419.7225" x="744.281" y="584.3038"/><text fill="#000000" font-family="Arial" font-size="27.0833" lengthAdjust="spacing" textLength="378.0558" x="765.1143" y="630.2765">Cipta akaun &amp; simpan profil</text><polygon fill="#FFF3CD" points="855.7475,1020.5505,1052.537,1020.5505,1077.537,1045.5505,1052.537,1070.5505,855.7475,1070.5505,830.7475,1045.5505,855.7475,1020.5505" style="stroke:#333333;stroke-width:1.0417;stroke-linejoin:miter;stroke-miterlimit:10;"/><text fill="#000000" font-family="Arial" font-size="25" lengthAdjust="spacing" textLength="196.7896" x="855.7475" y="1054.2053">Kredensial sah?</text><text fill="#000000" font-family="Arial" font-size="29.1667" lengthAdjust="spacing" textLength="79.1972" x="751.5503" y="1038.6719">Tidak</text><text fill="#000000" font-family="Arial" font-size="29.1667" lengthAdjust="spacing" textLength="35.6893" x="1077.537" y="1038.6719">Ya</text><rect fill="#F8F9FA" height="73.1934" rx="26.0417" ry="26.0417" style="stroke:#333333;stroke-width:1.0417;" width="325.3276" x="937.6005" y="2205.544"/><text fill="#000000" font-family="Arial" font-size="27.0833" lengthAdjust="spacing" textLength="283.6609" x="958.4338" y="2251.5167">Simpan profil ukuran</text><line style="stroke:#000000;stroke-width:3.125;" x1="731.781" x2="731.781" y1="122.406" y2="2984.7982"/><line style="stroke:#000000;stroke-width:3.125;" x1="1271.2613" x2="1271.2613" y1="122.406" y2="2984.7982"/><line style="stroke:#181818;stroke-width:2.0833;" x1="407.2489" x2="407.2489" y1="208.4412" y2="250.1078"/><polygon fill="#181818" points="398.9156,229.2745,407.2489,250.1078,415.5823,229.2745,407.2489,237.6078" style="stroke:#181818;stroke-width:2.0833;stroke-linejoin:miter;stroke-miterlimit:10;"/><line style="stroke:#181818;stroke-width:2.0833;" x1="407.2489" x2="407.2489" y1="414.9679" y2="469.4438"/><polygon fill="#181818" points="398.9156,448.6104,407.2489,469.4438,415.5823,448.6104,407.2489,456.9438" style="stroke:#181818;stroke-width:2.0833;stroke-linejoin:miter;stroke-miterlimit:10;"/><line style="stroke:#181818;stroke-width:2.0833;" x1="266.6361" x2="176.5544" y1="389.9679" y2="389.9679"/><polygon fill="#181818" points="168.221,600.0671,176.5544,620.9005,184.8877,600.0671,176.5544,608.4005" style="stroke:#181818;stroke-width:2.0833;stroke-linejoin:miter;stroke-miterlimit:10;"/><line style="stroke:#181818;stroke-width:2.0833;" x1="176.5544" x2="176.5544" y1="389.9679" y2="839.0238"/><line style="stroke:#181818;stroke-width:2.0833;" x1="176.5544" x2="382.2489" y1="839.0238" y2="839.0238"/><polygon fill="#181818" points="361.4156,830.6905,382.2489,839.0238,361.4156,847.3572,369.7489,839.0238" style="stroke:#181818;stroke-width:2.0833;stroke-linejoin:miter;stroke-miterlimit:10;"/><line style="stroke:#181818;stroke-width:2.0833;" x1="407.2489" x2="407.2489" y1="772.3572" y2="814.0238"/><polygon fill="#181818" points="398.9156,793.1905,407.2489,814.0238,415.5823,793.1905,407.2489,801.5238" style="stroke:#181818;stroke-width:2.0833;stroke-linejoin:miter;stroke-miterlimit:10;"/><line style="stroke:#181818;stroke-width:2.0833;" x1="407.2489" x2="407.2489" y1="323.3012" y2="364.9679"/><polygon fill="#181818" points="398.9156,344.1345,407.2489,364.9679,415.5823,344.1345,407.2489,352.4679" style="stroke:#181818;stroke-width:2.0833;stroke-linejoin:miter;stroke-miterlimit:10;"/><line style="stroke:#181818;stroke-width:2.0833;" x1="407.2489" x2="407.2489" y1="864.0238" y2="905.6905"/><polygon fill="#181818" points="398.9156,884.8572,407.2489,905.6905,415.5823,884.8572,407.2489,893.1905" style="stroke:#181818;stroke-width:2.0833;stroke-linejoin:miter;stroke-miterlimit:10;"/><line style="stroke:#181818;stroke-width:2.0833;" x1="263.0208" x2="263.0208" y1="1185.4106" y2="1227.0772"/><polygon fill="#181818" points="254.6875,1206.2439,263.0208,1227.0772,271.3542,1206.2439,263.0208,1214.5772" style="stroke:#181818;stroke-width:2.0833;stroke-linejoin:miter;stroke-miterlimit:10;"/><line style="stroke:#181818;stroke-width:2.0833;" x1="407.2489" x2="407.2489" y1="1479.4373" y2="1521.1039"/><polygon fill="#181818" points="398.9156,1500.2706,407.2489,1521.1039,415.5823,1500.2706,407.2489,1508.6039" style="stroke:#181818;stroke-width:2.0833;stroke-linejoin:miter;stroke-miterlimit:10;"/><line style="stroke:#181818;stroke-width:2.0833;" x1="316.0624" x2="281.3138" y1="1660.9639" y2="1660.9639"/><line style="stroke:#181818;stroke-width:2.0833;" x1="281.3138" x2="281.3138" y1="1660.9639" y2="1706.7973"/><polygon fill="#181818" points="272.9805,1685.9639,281.3138,1706.7973,289.6472,1685.9639,281.3138,1694.2973" style="stroke:#181818;stroke-width:2.0833;stroke-linejoin:miter;stroke-miterlimit:10;"/><line style="stroke:#181818;stroke-width:2.0833;" x1="498.4355" x2="533.1841" y1="1660.9639" y2="1660.9639"/><line style="stroke:#181818;stroke-width:2.0833;" x1="533.1841" x2="533.1841" y1="1660.9639" y2="1706.7973"/><polygon fill="#181818" points="524.8507,1685.9639,533.1841,1706.7973,541.5174,1685.9639,533.1841,1694.2973" style="stroke:#181818;stroke-width:2.0833;stroke-linejoin:miter;stroke-miterlimit:10;"/><line style="stroke:#181818;stroke-width:2.0833;" x1="281.3138" x2="281.3138" y1="1779.9906" y2="1817.4906"/><line style="stroke:#181818;stroke-width:2.0833;" x1="281.3138" x2="382.2489" y1="1817.4906" y2="1817.4906"/><polygon fill="#181818" points="361.4156,1809.1573,382.2489,1817.4906,361.4156,1825.824,369.7489,1817.4906" style="stroke:#181818;stroke-width:2.0833;stroke-linejoin:miter;stroke-miterlimit:10;"/><line style="stroke:#181818;stroke-width:2.0833;" x1="533.1841" x2="533.1841" y1="1779.9906" y2="1817.4906"/><line style="stroke:#181818;stroke-width:2.0833;" x1="533.1841" x2="432.2489" y1="1817.4906" y2="1817.4906"/><polygon fill="#181818" points="453.0823,1809.1573,432.2489,1817.4906,453.0823,1825.824,444.7489,1817.4906" style="stroke:#181818;stroke-width:2.0833;stroke-linejoin:miter;stroke-miterlimit:10;"/><line style="stroke:#181818;stroke-width:2.0833;" x1="407.2489" x2="407.2489" y1="1594.2973" y2="1635.9639"/><polygon fill="#181818" points="398.9156,1615.1306,407.2489,1635.9639,415.5823,1615.1306,407.2489,1623.4639" style="stroke:#181818;stroke-width:2.0833;stroke-linejoin:miter;stroke-miterlimit:10;"/><line style="stroke:#181818;stroke-width:2.0833;" x1="407.2489" x2="407.2489" y1="1842.4906" y2="1884.1573"/><polygon fill="#181818" points="398.9156,1863.324,407.2489,1884.1573,415.5823,1863.324,407.2489,1871.6573" style="stroke:#181818;stroke-width:2.0833;stroke-linejoin:miter;stroke-miterlimit:10;"/><line style="stroke:#181818;stroke-width:2.0833;" x1="330.5827" x2="261.127" y1="2024.0173" y2="2024.0173"/><line style="stroke:#181818;stroke-width:2.0833;" x1="261.127" x2="261.127" y1="2024.0173" y2="2090.684"/><polygon fill="#181818" points="252.7936,2069.8507,261.127,2090.684,269.4603,2069.8507,261.127,2078.184" style="stroke:#181818;stroke-width:2.0833;stroke-linejoin:miter;stroke-miterlimit:10;"/><line style="stroke:#181818;stroke-width:2.0833;" x1="483.9152" x2="553.3709" y1="2024.0173" y2="2024.0173"/><line style="stroke:#181818;stroke-width:2.0833;" x1="553.3709" x2="553.3709" y1="2024.0173" y2="2090.684"/><polygon fill="#181818" points="545.0376,2069.8507,553.3709,2090.684,561.7043,2069.8507,553.3709,2078.184" style="stroke:#181818;stroke-width:2.0833;stroke-linejoin:miter;stroke-miterlimit:10;"/><line style="stroke:#181818;stroke-width:2.0833;" x1="261.127" x2="261.127" y1="2163.8774" y2="2324.5707"/><line style="stroke:#181818;stroke-width:2.0833;" x1="261.127" x2="382.2489" y1="2324.5707" y2="2324.5707"/><polygon fill="#181818" points="361.4156,2316.2374,382.2489,2324.5707,361.4156,2332.9041,369.7489,2324.5707" style="stroke:#181818;stroke-width:2.0833;stroke-linejoin:miter;stroke-miterlimit:10;"/><line style="stroke:#181818;stroke-width:2.0833;" x1="407.2489" x2="407.2489" y1="1957.3507" y2="1999.0173"/><polygon fill="#181818" points="398.9156,1978.184,407.2489,1999.0173,415.5823,1978.184,407.2489,1986.5173" style="stroke:#181818;stroke-width:2.0833;stroke-linejoin:miter;stroke-miterlimit:10;"/><line style="stroke:#181818;stroke-width:2.0833;" x1="407.2489" x2="407.2489" y1="2441.2374" y2="2495.7133"/><polygon fill="#181818" points="398.9156,2474.88,407.2489,2495.7133,415.5823,2474.88,407.2489,2483.2133" style="stroke:#181818;stroke-width:2.0833;stroke-linejoin:miter;stroke-miterlimit:10;"/><line style="stroke:#181818;stroke-width:2.0833;" x1="481.3273" x2="573.2834" y1="2416.2374" y2="2416.2374"/><polygon fill="#181818" points="564.9501,2511.4766,573.2834,2532.31,581.6167,2511.4766,573.2834,2519.81" style="stroke:#181818;stroke-width:2.0833;stroke-linejoin:miter;stroke-miterlimit:10;"/><line style="stroke:#181818;stroke-width:2.0833;" x1="573.2834" x2="573.2834" y1="2416.2374" y2="2635.5733"/><line style="stroke:#181818;stroke-width:2.0833;" x1="573.2834" x2="432.2489" y1="2635.5733" y2="2635.5733"/><polygon fill="#181818" points="453.0823,2627.24,432.2489,2635.5733,453.0823,2643.9067,444.7489,2635.5733" style="stroke:#181818;stroke-width:2.0833;stroke-linejoin:miter;stroke-miterlimit:10;"/><line style="stroke:#181818;stroke-width:2.0833;" x1="407.2489" x2="407.2489" y1="2568.9067" y2="2610.5733"/><polygon fill="#181818" points="398.9156,2589.74,407.2489,2610.5733,415.5823,2589.74,407.2489,2598.0733" style="stroke:#181818;stroke-width:2.0833;stroke-linejoin:miter;stroke-miterlimit:10;"/><line style="stroke:#181818;stroke-width:2.0833;" x1="407.2489" x2="407.2489" y1="2349.5707" y2="2391.2374"/><polygon fill="#181818" points="398.9156,2370.4041,407.2489,2391.2374,415.5823,2370.4041,407.2489,2378.7374" style="stroke:#181818;stroke-width:2.0833;stroke-linejoin:miter;stroke-miterlimit:10;"/><line style="stroke:#181818;stroke-width:2.0833;" x1="407.2489" x2="407.2489" y1="2660.5733" y2="2702.24"/><polygon fill="#181818" points="398.9156,2681.4067,407.2489,2702.24,415.5823,2681.4067,407.2489,2689.74" style="stroke:#181818;stroke-width:2.0833;stroke-linejoin:miter;stroke-miterlimit:10;"/><line style="stroke:#181818;stroke-width:2.0833;" x1="407.2489" x2="407.2489" y1="1364.5772" y2="1406.2439"/><polygon fill="#181818" points="398.9156,1385.4106,407.2489,1406.2439,415.5823,1385.4106,407.2489,1393.7439" style="stroke:#181818;stroke-width:2.0833;stroke-linejoin:miter;stroke-miterlimit:10;"/><line style="stroke:#181818;stroke-width:2.0833;" x1="320.6584" x2="81.25" y1="2842.1" y2="2842.1"/><polygon fill="#181818" points="72.9167,2102.4516,81.25,2081.6182,89.5833,2102.4516,81.25,2094.1182" style="stroke:#181818;stroke-width:2.0833;stroke-linejoin:miter;stroke-miterlimit:10;"/><line style="stroke:#181818;stroke-width:2.0833;" x1="81.25" x2="81.25" y1="1339.5772" y2="2842.1"/><line style="stroke:#181818;stroke-width:2.0833;" x1="81.25" x2="382.2489" y1="1339.5772" y2="1339.5772"/><polygon fill="#181818" points="361.4156,1331.2439,382.2489,1339.5772,361.4156,1347.9106,369.7489,1339.5772" style="stroke:#181818;stroke-width:2.0833;stroke-linejoin:miter;stroke-miterlimit:10;"/><line style="stroke:#181818;stroke-width:2.0833;" x1="407.2489" x2="407.2489" y1="2775.4333" y2="2817.1"/><polygon fill="#181818" points="398.9156,2796.2667,407.2489,2817.1,415.5823,2796.2667,407.2489,2804.6" style="stroke:#181818;stroke-width:2.0833;stroke-linejoin:miter;stroke-miterlimit:10;"/><line style="stroke:#181818;stroke-width:2.0833;" x1="407.2489" x2="407.2489" y1="2867.1" y2="2938.9648"/><polygon fill="#181818" points="398.9156,2918.1315,407.2489,2938.9648,415.5823,2918.1315,407.2489,2926.4648" style="stroke:#181818;stroke-width:2.0833;stroke-linejoin:miter;stroke-miterlimit:10;"/><line style="stroke:#181818;stroke-width:2.0833;" x1="407.2489" x2="407.2489" y1="542.6371" y2="553.0538"/><line style="stroke:#181818;stroke-width:2.0833;" x1="407.2489" x2="954.1423" y1="553.0538" y2="553.0538"/><line style="stroke:#181818;stroke-width:2.0833;" x1="954.1423" x2="954.1423" y1="553.0538" y2="584.3038"/><polygon fill="#181818" points="945.8089,563.4705,954.1423,584.3038,962.4756,563.4705,954.1423,571.8038" style="stroke:#181818;stroke-width:2.0833;stroke-linejoin:miter;stroke-miterlimit:10;"/><line style="stroke:#181818;stroke-width:2.0833;" x1="954.1423" x2="954.1423" y1="657.4972" y2="667.9138"/><line style="stroke:#181818;stroke-width:2.0833;" x1="954.1423" x2="407.2489" y1="667.9138" y2="667.9138"/><line style="stroke:#181818;stroke-width:2.0833;" x1="407.2489" x2="407.2489" y1="667.9138" y2="699.1638"/><polygon fill="#181818" points="398.9156,678.3305,407.2489,699.1638,415.5823,678.3305,407.2489,686.6638" style="stroke:#181818;stroke-width:2.0833;stroke-linejoin:miter;stroke-miterlimit:10;"/><line style="stroke:#181818;stroke-width:2.0833;" x1="830.7475" x2="263.0208" y1="1045.5505" y2="1045.5505"/><line style="stroke:#181818;stroke-width:2.0833;" x1="263.0208" x2="263.0208" y1="1045.5505" y2="1112.2172"/><polygon fill="#181818" points="254.6875,1091.3839,263.0208,1112.2172,271.3542,1091.3839,263.0208,1099.7172" style="stroke:#181818;stroke-width:2.0833;stroke-linejoin:miter;stroke-miterlimit:10;"/><line style="stroke:#181818;stroke-width:2.0833;" x1="1077.537" x2="1102.537" y1="1045.5505" y2="1045.5505"/><line style="stroke:#181818;stroke-width:2.0833;" x1="1102.537" x2="1102.537" y1="1045.5505" y2="1083.0505"/><line style="stroke:#181818;stroke-width:2.0833;" x1="1102.537" x2="551.4771" y1="1083.0505" y2="1083.0505"/><line style="stroke:#181818;stroke-width:2.0833;" x1="551.4771" x2="551.4771" y1="1083.0505" y2="1112.2172"/><polygon fill="#181818" points="543.1437,1091.3839,551.4771,1112.2172,559.8104,1091.3839,551.4771,1099.7172" style="stroke:#181818;stroke-width:2.0833;stroke-linejoin:miter;stroke-miterlimit:10;"/><line style="stroke:#181818;stroke-width:2.0833;" x1="551.4771" x2="551.4771" y1="1185.4106" y2="1283.3272"/><line style="stroke:#181818;stroke-width:2.0833;" x1="551.4771" x2="407.2489" y1="1283.3272" y2="1283.3272"/><line style="stroke:#181818;stroke-width:2.0833;" x1="407.2489" x2="407.2489" y1="1283.3272" y2="1314.5772"/><polygon fill="#181818" points="398.9156,1293.7439,407.2489,1314.5772,415.5823,1293.7439,407.2489,1302.0772" style="stroke:#181818;stroke-width:2.0833;stroke-linejoin:miter;stroke-miterlimit:10;"/><line style="stroke:#181818;stroke-width:2.0833;" x1="407.2489" x2="407.2489" y1="978.8839" y2="989.3005"/><line style="stroke:#181818;stroke-width:2.0833;" x1="407.2489" x2="954.1423" y1="989.3005" y2="989.3005"/><line style="stroke:#181818;stroke-width:2.0833;" x1="954.1423" x2="954.1423" y1="989.3005" y2="1020.5505"/><polygon fill="#181818" points="945.8089,999.7172,954.1423,1020.5505,962.4756,999.7172,954.1423,1008.0505" style="stroke:#181818;stroke-width:2.0833;stroke-linejoin:miter;stroke-miterlimit:10;"/><line style="stroke:#181818;stroke-width:2.0833;" x1="553.3709" x2="553.3709" y1="2163.8774" y2="2174.294"/><line style="stroke:#181818;stroke-width:2.0833;" x1="553.3709" x2="1100.2642" y1="2174.294" y2="2174.294"/><line style="stroke:#181818;stroke-width:2.0833;" x1="1100.2642" x2="1100.2642" y1="2174.294" y2="2205.544"/><polygon fill="#181818" points="1091.9309,2184.7107,1100.2642,2205.544,1108.5976,2184.7107,1100.2642,2193.044" style="stroke:#181818;stroke-width:2.0833;stroke-linejoin:miter;stroke-miterlimit:10;"/><line style="stroke:#181818;stroke-width:2.0833;" x1="1100.2642" x2="1100.2642" y1="2278.7374" y2="2324.5707"/><line style="stroke:#181818;stroke-width:2.0833;" x1="1100.2642" x2="432.2489" y1="2324.5707" y2="2324.5707"/><polygon fill="#181818" points="453.0823,2316.2374,432.2489,2324.5707,453.0823,2332.9041,444.7489,2324.5707" style="stroke:#181818;stroke-width:2.0833;stroke-linejoin:miter;stroke-miterlimit:10;"/><text fill="#000000" font-family="Arial" font-size="29.1667" lengthAdjust="spacing" textLength="153.3813" x="310.0332" y="149.4792">Pelanggan</text><text fill="#000000" font-family="Arial" font-size="29.1667" lengthAdjust="spacing" textLength="99.6053" x="951.7185" y="149.4792">Sistem</text><?plantuml-src RLHDRzD04BtxLuo4X993KKbQL9832aqjGGjO91nwdDORUzZrhhKVL4NvyPsrdNYXoS67UM_dlPqt6qzU2VY9lx66-RlP1ASBoD4Xh88NsfD4H_0M2j6GeXer5DQKGMQPawHRjDX0sHBCpi-JYgknD4-aAzYXSYBbYXq6vNEZ_NTi1AmieJgDR-YlWFSN2UYZrn6wIY1yzFI7_FE8pa-WQyB6w78apH8IVrc0Z1xXomHU3Jq-uwEih0cwl3RAM7YJN-KVyzKffh6bi0DhtlrEi0PFhzlc-VnwdHme3lvUKMzkybcUdwIc5YxoYmytbrcsBuH2NLMezvdpJCqMtu92Q0GNWqR9AMEhkkYN6UrWiWabhmUM20m6_MaAlXOQ9bigKKupWCKQTzofX-41QxHXoVNzXfmNpJvIhgdrGmDUA4TDopgjDJjI7JLnnUmDrj67E6i4muAt22RtECs4BccNBUvC1Gsw89VPKICwlRMY5DhnKe73-hNH_rGAv861HOK-Ud3Uj8aM4rRI2GTEMj8GF3Qu71oaZQne1Vf8lyDdj0GIFIfJBJk9-6x02edmm0ygEWQ8LhyAJOwfDCvp4tjRYifyyfOXS7qf7kgD5KBpMoMVajgXrh4wUqVX9xGQ3vA_PB0uoXNTy5cY98pf3YtxWsColUwNve7_5WxX3jGrLSHNXIqIhzYoAoQPnnpJd25q1WRUFr4SR4URM_jyzcEqUNyqPj7pspJSZjU8-aQzksF0n-jlaGtN80LuQnGFi4y9dcfIyJfi4LG_V8uXYe0s_jWfhi8B?></g></svg>