<svg xmlns="http://www.w3.org/2000/svg" xmlns:xlink="http://www.w3.org/1999/xlink" contentStyleType="text/css" data-diagram-type="ACTIVITY" height="4404.1667px" preserveAspectRatio="none" style="width:1606px;height:4404px;background:#FFFFFF;" version="1.1" viewBox="0 0 1606 4404" width="1606.25px" zoomAndPan="magnify"><?plantuml 1.2026.6?><defs/><g><g class="title" data-source-line="1"><text fill="#000000" font-family="Arial" font-size="37.5" font-weight="700" lengthAdjust="spacing" textLength="1482.5867" x="60.0318" y="76.475">Rajah 3.2(a): Rajah Aktiviti Pelanggan - Fasa Autentikasi &amp; Tempahan</text></g><rect fill="none" height="33.9518" style="stroke:none;stroke-width:2.0833;" width="1508.9002" x="41.6667" y="122.406"/><ellipse cx="460.8266" cy="187.6078" fill="#222222" rx="20.8333" ry="20.8333" style="stroke:#222222;stroke-width:2.0833;"/><rect fill="#F8F9FA" height="73.1934" rx="26.0417" ry="26.0417" style="stroke:#333333;stroke-width:1.0417;" width="616.6585" x="152.4974" y="250.1078"/><text fill="#000000" font-family="Arial" font-size="27.0833" lengthAdjust="spacing" textLength="574.9919" x="173.3307" y="296.0805">Mula menggunakan aplikasi Busana Prima</text><rect fill="#F8F9FA" height="73.1934" rx="26.0417" ry="26.0417" style="stroke:#333333;stroke-width:1.0417;" width="323.2778" x="299.1877" y="469.4438"/><text fill="#000000" font-family="Arial" font-size="27.0833" lengthAdjust="spacing" textLength="281.6111" x="320.0211" y="515.4165">Daftar akaun baharu</text><rect fill="#F8F9FA" height="73.1934" rx="26.0417" ry="26.0417" style="stroke:#333333;stroke-width:1.0417;" width="227.6794" x="346.9869" y="845.2738"/><text fill="#000000" font-family="Arial" font-size="27.0833" lengthAdjust="spacing" textLength="186.0128" x="367.8202" y="891.2465">Sahkan e-mel</text><polygon fill="#FFF3CD" points="294.1152,364.9679,627.538,364.9679,652.538,389.9679,627.538,414.9679,294.1152,414.9679,269.1152,389.9679,294.1152,364.9679" style="stroke:#856404;stroke-width:1.0417;stroke-linejoin:miter;stroke-miterlimit:10;"/><text fill="#000000" font-family="Arial" font-size="29.1667" lengthAdjust="spacing" textLength="79.1972" x="469.16" y="442.041">Tidak</text><text fill="#000000" font-family="Arial" font-size="25" lengthAdjust="spacing" textLength="333.4229" x="294.1152" y="398.6226">Sudah mempunyai akaun?</text><text fill="#000000" font-family="Arial" font-size="29.1667" lengthAdjust="spacing" textLength="35.6893" x="233.4259" y="383.0892">Ya</text><polygon fill="#FFF3CD" points="460.8266,960.1339,485.8266,985.1339,460.8266,1010.1339,435.8266,985.1339,460.8266,960.1339" style="stroke:#856404;stroke-width:1.0417;stroke-linejoin:miter;stroke-miterlimit:10;"/><rect fill="#F8F9FA" height="73.1934" rx="26.0417" ry="26.0417" style="stroke:#333333;stroke-width:1.0417;" width="328.0385" x="296.8074" y="1051.8005"/><text fill="#000000" font-family="Arial" font-size="27.0833" lengthAdjust="spacing" textLength="286.3719" x="317.6407" y="1097.7732">Log masuk ke sistem</text><rect fill="#F8F9FA" height="73.1934" rx="26.0417" ry="26.0417" style="stroke:#333333;stroke-width:1.0417;" width="280.5501" x="122.7755" y="1373.1873"/><text fill="#000000" font-family="Arial" font-size="27.0833" lengthAdjust="spacing" textLength="238.8835" x="143.6089" y="1419.16">Papar mesej ralat</text><ellipse cx="263.0506" cy="1510.9639" fill="none" rx="22.9167" ry="22.9167" style="stroke:#222222;stroke-width:2.0833;"/><ellipse cx="263.0506" cy="1510.9639" fill="#222222" rx="12.5" ry="12.5" style="stroke:#222222;stroke-width:2.0833;"/><rect fill="#F8F9FA" height="73.1934" rx="26.0417" ry="26.0417" style="stroke:#333333;stroke-width:1.0417;" width="427.2207" x="444.9923" y="1373.1873"/><text fill="#000000" font-family="Arial" font-size="27.0833" lengthAdjust="spacing" textLength="385.554" x="465.8257" y="1419.16">Benarkan akses skrin utama</text><rect fill="#F8F9FA" height="73.1934" rx="26.0417" ry="26.0417" style="stroke:#333333;stroke-width:1.0417;" width="505.7729" x="207.9402" y="1667.2139"/><text fill="#000000" font-family="Arial" font-size="27.0833" lengthAdjust="spacing" textLength="464.1062" x="228.7735" y="1713.1866">Semak imbas katalog reka bentuk</text><rect fill="#F8F9FA" height="73.1934" rx="26.0417" ry="26.0417" style="stroke:#333333;stroke-width:1.0417;" width="385.4848" x="268.0842" y="1782.074"/><text fill="#000000" font-family="Arial" font-size="27.0833" lengthAdjust="spacing" textLength="343.8182" x="288.9175" y="1828.0467">Pilih reka bentuk pakaian</text><polygon fill="#FFF3CD" points="394.6401,1896.934,527.0131,1896.934,552.0131,1921.934,527.0131,1946.934,394.6401,1946.934,369.6401,1921.934,394.6401,1896.934" style="stroke:#856404;stroke-width:1.0417;stroke-linejoin:miter;stroke-miterlimit:10;"/><text fill="#000000" font-family="Arial" font-size="25" lengthAdjust="spacing" textLength="132.373" x="394.6401" y="1930.5888">Jenis kain?</text><text fill="#000000" font-family="Arial" font-size="29.1667" lengthAdjust="spacing" textLength="101.6561" x="267.984" y="1915.0553">Sendiri</text><text fill="#000000" font-family="Arial" font-size="29.1667" lengthAdjust="spacing" textLength="118.0196" x="552.0131" y="1915.0553">Penjahit</text><rect fill="#F8F9FA" height="73.1934" rx="26.0417" ry="26.0417" style="stroke:#333333;stroke-width:1.0417;" width="263.2395" x="171.9699" y="1967.7673"/><text fill="#000000" font-family="Arial" font-size="27.0833" lengthAdjust="spacing" textLength="221.5729" x="192.8032" y="2013.74">Pilih kain sendiri</text><rect fill="#F8F9FA" height="73.1934" rx="26.0417" ry="26.0417" style="stroke:#333333;stroke-width:1.0417;" width="282.3751" x="476.8761" y="1967.7673"/><text fill="#000000" font-family="Arial" font-size="27.0833" lengthAdjust="spacing" textLength="240.7084" x="497.7094" y="2013.74">Pilih kain penjahit</text><polygon fill="#FFF3CD" points="460.8266,2053.4607,485.8266,2078.4607,460.8266,2103.4607,435.8266,2078.4607,460.8266,2053.4607" style="stroke:#856404;stroke-width:1.0417;stroke-linejoin:miter;stroke-miterlimit:10;"/><rect fill="#F8F9FA" height="73.1934" rx="26.0417" ry="26.0417" style="stroke:#333333;stroke-width:1.0417;" width="305.954" x="307.8496" y="2145.1274"/><text fill="#000000" font-family="Arial" font-size="27.0833" lengthAdjust="spacing" textLength="264.2873" x="328.683" y="2191.1001">Pilih warna pakaian</text><polygon fill="#FFF3CD" points="357.6162,2259.9874,564.0371,2259.9874,589.0371,2284.9874,564.0371,2309.9874,357.6162,2309.9874,332.6162,2284.9874,357.6162,2259.9874" style="stroke:#856404;stroke-width:1.0417;stroke-linejoin:miter;stroke-miterlimit:10;"/><text fill="#000000" font-family="Arial" font-size="25" lengthAdjust="spacing" textLength="206.4209" x="357.6162" y="2293.6422">Sumber ukuran?</text><text fill="#000000" font-family="Arial" font-size="29.1667" lengthAdjust="spacing" textLength="224.3327" x="108.2835" y="2278.1087">Profil sedia ada</text><text fill="#000000" font-family="Arial" font-size="29.1667" lengthAdjust="spacing" textLength="237.4491" x="589.0371" y="2278.1087">Imbasan baharu</text><rect fill="#F8F9FA" height="73.1934" rx="26.0417" ry="26.0417" style="stroke:#333333;stroke-width:1.0417;" width="279.3467" x="127.0833" y="2351.6541"/><text fill="#000000" font-family="Arial" font-size="27.0833" lengthAdjust="spacing" textLength="237.6801" x="147.9167" y="2397.6267">Pilih profil ukuran</text><rect fill="#F8F9FA" height="73.1934" rx="26.0417" ry="26.0417" style="stroke:#333333;stroke-width:1.0417;" width="338.6444" x="485.5743" y="2351.6541"/><text fill="#000000" font-family="Arial" font-size="27.0833" lengthAdjust="spacing" textLength="296.9777" x="506.4077" y="2397.6267">Imbasan Digital Tailor</text><polygon fill="#FFF3CD" points="460.8266,2560.5408,485.8266,2585.5408,460.8266,2610.5408,435.8266,2585.5408,460.8266,2560.5408" style="stroke:#856404;stroke-width:1.0417;stroke-linejoin:miter;stroke-miterlimit:10;"/><rect fill="#F8F9FA" height="73.1934" rx="26.0417" ry="26.0417" style="stroke:#333333;stroke-width:1.0417;" width="366.865" x="277.3941" y="2756.6833"/><text fill="#000000" font-family="Arial" font-size="27.0833" lengthAdjust="spacing" textLength="325.1984" x="298.2274" y="2802.656">Lihat pratonton pakaian</text><polygon fill="#FFF3CD" points="366.6555,2652.2074,554.9978,2652.2074,579.9978,2677.2074,554.9978,2702.2074,366.6555,2702.2074,341.6555,2677.2074,366.6555,2652.2074" style="stroke:#856404;stroke-width:1.0417;stroke-linejoin:miter;stroke-miterlimit:10;"/><text fill="#000000" font-family="Arial" font-size="29.1667" lengthAdjust="spacing" textLength="35.6893" x="469.16" y="2729.2806">Ya</text><text fill="#000000" font-family="Arial" font-size="25" lengthAdjust="spacing" textLength="188.3423" x="366.6555" y="2685.8622">Virtual Try-On?</text><text fill="#000000" font-family="Arial" font-size="29.1667" lengthAdjust="spacing" textLength="79.1972" x="579.9978" y="2670.3288">Tidak</text><polygon fill="#FFF3CD" points="460.8266,2871.5434,485.8266,2896.5434,460.8266,2921.5434,435.8266,2896.5434,460.8266,2871.5434" style="stroke:#856404;stroke-width:1.0417;stroke-linejoin:miter;stroke-miterlimit:10;"/><rect fill="#F8F9FA" height="73.1934" rx="26.0417" ry="26.0417" style="stroke:#333333;stroke-width:1.0417;" width="324.8779" x="298.3877" y="2963.21"/><text fill="#000000" font-family="Arial" font-size="27.0833" lengthAdjust="spacing" textLength="283.2113" x="319.221" y="3009.1827">Tambah item ke troli</text><polygon fill="#FFF3CD" points="460.8266,1575.5473,485.8266,1600.5473,460.8266,1625.5473,435.8266,1600.5473,460.8266,1575.5473" style="stroke:#856404;stroke-width:1.0417;stroke-linejoin:miter;stroke-miterlimit:10;"/><polygon fill="#FFF3CD" points="344.4875,3078.0701,577.1657,3078.0701,602.1657,3103.0701,577.1657,3128.0701,344.4875,3128.0701,319.4875,3103.0701,344.4875,3078.0701" style="stroke:#856404;stroke-width:1.0417;stroke-linejoin:miter;stroke-miterlimit:10;"/><text fill="#000000" font-family="Arial" font-size="29.1667" lengthAdjust="spacing" textLength="79.1972" x="469.16" y="3155.1432">Tidak</text><text fill="#000000" font-family="Arial" font-size="25" lengthAdjust="spacing" textLength="232.6782" x="344.4875" y="3111.7249">Tambah item lain?</text><text fill="#000000" font-family="Arial" font-size="29.1667" lengthAdjust="spacing" textLength="35.6893" x="602.1657" y="3096.1914">Ya</text><rect fill="#F8F9FA" height="73.1934" rx="26.0417" ry="26.0417" style="stroke:#333333;stroke-width:1.0417;" width="358.1502" x="281.7515" y="3199.9349"/><text fill="#000000" font-family="Arial" font-size="27.0833" lengthAdjust="spacing" textLength="316.4836" x="302.5848" y="3245.9076">Semak troli &amp; checkout</text><rect fill="#F8F9FA" height="73.1934" rx="26.0417" ry="26.0417" style="stroke:#333333;stroke-width:1.0417;" width="538.7543" x="191.4495" y="3314.7949"/><text fill="#000000" font-family="Arial" font-size="27.0833" lengthAdjust="spacing" textLength="497.0876" x="212.2828" y="3360.7676">Pilih alamat &amp; kaedah penghantaran</text><rect fill="#F8F9FA" height="73.1934" rx="26.0417" ry="26.0417" style="stroke:#333333;stroke-width:1.0417;" width="434.1634" x="243.7449" y="3534.1309"/><text fill="#000000" font-family="Arial" font-size="27.0833" lengthAdjust="spacing" textLength="392.4967" x="264.5782" y="3580.1036">Tetapkan penghantaran kain</text><polygon fill="#FFF3CD" points="321.4467,3429.6549,600.2065,3429.6549,625.2065,3454.6549,600.2065,3479.6549,321.4467,3479.6549,296.4467,3454.6549,321.4467,3429.6549" style="stroke:#856404;stroke-width:1.0417;stroke-linejoin:miter;stroke-miterlimit:10;"/><text fill="#000000" font-family="Arial" font-size="29.1667" lengthAdjust="spacing" textLength="35.6893" x="469.16" y="3506.7281">Ya</text><text fill="#000000" font-family="Arial" font-size="25" lengthAdjust="spacing" textLength="278.7598" x="321.4467" y="3463.3097">Ada item kain sendiri?</text><text fill="#000000" font-family="Arial" font-size="29.1667" lengthAdjust="spacing" textLength="79.1972" x="625.2065" y="3447.7763">Tidak</text><polygon fill="#FFF3CD" points="460.8266,3648.9909,485.8266,3673.9909,460.8266,3698.9909,435.8266,3673.9909,460.8266,3648.9909" style="stroke:#856404;stroke-width:1.0417;stroke-linejoin:miter;stroke-miterlimit:10;"/><rect fill="#F8F9FA" height="73.1934" rx="26.0417" ry="26.0417" style="stroke:#333333;stroke-width:1.0417;" width="445.8934" x="237.8799" y="3740.6576"/><text fill="#000000" font-family="Arial" font-size="27.0833" lengthAdjust="spacing" textLength="404.2267" x="258.7133" y="3786.6302">Pilih terma &amp; kaedah bayaran</text><rect fill="#F8F9FA" height="73.1934" rx="26.0417" ry="26.0417" style="stroke:#333333;stroke-width:1.0417;" width="423.6104" x="249.0214" y="3855.5176"/><text fill="#000000" font-family="Arial" font-size="27.0833" lengthAdjust="spacing" textLength="381.9438" x="269.8547" y="3901.4903">Sahkan dan hantar pesanan</text><rect fill="#F8F9FA" height="73.1934" rx="26.0417" ry="26.0417" style="stroke:#333333;stroke-width:1.0417;" width="435.7239" x="242.9647" y="4200.0977"/><text fill="#000000" font-family="Arial" font-size="27.0833" lengthAdjust="spacing" textLength="394.0572" x="263.798" y="4246.0704">Terima pengesahan pesanan</text><ellipse cx="460.8266" cy="4337.8743" fill="none" rx="22.9167" ry="22.9167" style="stroke:#222222;stroke-width:2.0833;"/><ellipse cx="460.8266" cy="4337.8743" fill="#222222" rx="12.5" ry="12.5" style="stroke:#222222;stroke-width:2.0833;"/><line style="stroke:#000000;stroke-width:3.125;" x1="41.6667" x2="41.6667" y1="122.406" y2="4360.791"/><rect fill="#F8F9FA" height="73.1934" rx="26.0417" ry="26.0417" style="stroke:#333333;stroke-width:1.0417;" width="417.3157" x="930.1537" y="584.3038"/><text fill="#000000" font-family="Arial" font-size="27.0833" lengthAdjust="spacing" textLength="375.649" x="950.987" y="630.2765">Sahkan input &amp; cipta akaun</text><rect fill="#F8F9FA" height="73.1934" rx="26.0417" ry="26.0417" style="stroke:#333333;stroke-width:1.0417;" width="373.702" x="951.9605" y="730.4138"/><text fill="#000000" font-family="Arial" font-size="27.0833" lengthAdjust="spacing" textLength="332.0353" x="972.7938" y="776.3865">Simpan profil pelanggan</text><rect fill="#F8F9FA" height="73.1934" rx="26.0417" ry="26.0417" style="stroke:#333333;stroke-width:1.0417;" width="290.9312" x="993.3459" y="1166.6606"/><text fill="#000000" font-family="Arial" font-size="27.0833" lengthAdjust="spacing" textLength="249.2645" x="1014.1792" y="1212.6333">Sahkan kredensial</text><polygon fill="#FFF3CD" points="1040.4167,1281.5206,1237.2063,1281.5206,1262.2063,1306.5206,1237.2063,1331.5206,1040.4167,1331.5206,1015.4167,1306.5206,1040.4167,1281.5206" style="stroke:#856404;stroke-width:1.0417;stroke-linejoin:miter;stroke-miterlimit:10;"/><text fill="#000000" font-family="Arial" font-size="25" lengthAdjust="spacing" textLength="196.7896" x="1040.4167" y="1315.1754">Kredensial sah?</text><text fill="#000000" font-family="Arial" font-size="29.1667" lengthAdjust="spacing" textLength="79.1972" x="936.2195" y="1299.6419">Tidak</text><text fill="#000000" font-family="Arial" font-size="29.1667" lengthAdjust="spacing" textLength="35.6893" x="1262.2063" y="1299.6419">Ya</text><rect fill="#F8F9FA" height="73.1934" rx="26.0417" ry="26.0417" style="stroke:#333333;stroke-width:1.0417;" width="413.5997" x="1126.0816" y="2466.5141"/><text fill="#000000" font-family="Arial" font-size="27.0833" lengthAdjust="spacing" textLength="371.933" x="1146.9149" y="2512.4868">Kira &amp; simpan profil ukuran</text><rect fill="#F8F9FA" height="73.1934" rx="26.0417" ry="26.0417" style="stroke:#333333;stroke-width:1.0417;" width="479.7607" x="898.9311" y="3970.3776"/><text fill="#000000" font-family="Arial" font-size="27.0833" lengthAdjust="spacing" textLength="438.0941" x="919.7645" y="4016.3503">Proses bayaran &amp; cipta pesanan</text><rect fill="#F8F9FA" height="73.1934" rx="26.0417" ry="26.0417" style="stroke:#333333;stroke-width:1.0417;" width="491.5304" x="893.0463" y="4085.2376"/><text fill="#000000" font-family="Arial" font-size="27.0833" lengthAdjust="spacing" textLength="449.8637" x="913.8796" y="4131.2103">Kosongkan troli &amp; cipta sembang</text><line style="stroke:#000000;stroke-width:3.125;" x1="880.5463" x2="880.5463" y1="122.406" y2="4360.791"/><line style="stroke:#000000;stroke-width:3.125;" x1="1548.0146" x2="1548.0146" y1="122.406" y2="4360.791"/><line style="stroke:#181818;stroke-width:2.0833;" x1="460.8266" x2="460.8266" y1="208.4412" y2="250.1078"/><polygon fill="#181818" points="452.4933,229.2745,460.8266,250.1078,469.16,229.2745,460.8266,237.6078" style="stroke:#181818;stroke-width:2.0833;stroke-linejoin:miter;stroke-miterlimit:10;"/><line style="stroke:#181818;stroke-width:2.0833;" x1="460.8266" x2="460.8266" y1="414.9679" y2="469.4438"/><polygon fill="#181818" points="452.4933,448.6104,460.8266,469.4438,469.16,448.6104,460.8266,456.9438" style="stroke:#181818;stroke-width:2.0833;stroke-linejoin:miter;stroke-miterlimit:10;"/><line style="stroke:#181818;stroke-width:2.0833;" x1="269.1152" x2="231.3354" y1="389.9679" y2="389.9679"/><polygon fill="#181818" points="223.0021,673.1222,231.3354,693.9555,239.6688,673.1222,231.3354,681.4555" style="stroke:#181818;stroke-width:2.0833;stroke-linejoin:miter;stroke-miterlimit:10;"/><line style="stroke:#181818;stroke-width:2.0833;" x1="231.3354" x2="231.3354" y1="389.9679" y2="985.1339"/><line style="stroke:#181818;stroke-width:2.0833;" x1="231.3354" x2="435.8266" y1="985.1339" y2="985.1339"/><polygon fill="#181818" points="414.9933,976.8005,435.8266,985.1339,414.9933,993.4672,423.3266,985.1339" style="stroke:#181818;stroke-width:2.0833;stroke-linejoin:miter;stroke-miterlimit:10;"/><line style="stroke:#181818;stroke-width:2.0833;" x1="460.8266" x2="460.8266" y1="918.4672" y2="960.1339"/><polygon fill="#181818" points="452.4933,939.3005,460.8266,960.1339,469.16,939.3005,460.8266,947.6339" style="stroke:#181818;stroke-width:2.0833;stroke-linejoin:miter;stroke-miterlimit:10;"/><line style="stroke:#181818;stroke-width:2.0833;" x1="460.8266" x2="460.8266" y1="323.3012" y2="364.9679"/><polygon fill="#181818" points="452.4933,344.1345,460.8266,364.9679,469.16,344.1345,460.8266,352.4679" style="stroke:#181818;stroke-width:2.0833;stroke-linejoin:miter;stroke-miterlimit:10;"/><line style="stroke:#181818;stroke-width:2.0833;" x1="460.8266" x2="460.8266" y1="1010.1339" y2="1051.8005"/><polygon fill="#181818" points="452.4933,1030.9672,460.8266,1051.8005,469.16,1030.9672,460.8266,1039.3005" style="stroke:#181818;stroke-width:2.0833;stroke-linejoin:miter;stroke-miterlimit:10;"/><line style="stroke:#181818;stroke-width:2.0833;" x1="263.0506" x2="263.0506" y1="1446.3806" y2="1488.0473"/><polygon fill="#181818" points="254.7173,1467.2139,263.0506,1488.0473,271.3839,1467.2139,263.0506,1475.5473" style="stroke:#181818;stroke-width:2.0833;stroke-linejoin:miter;stroke-miterlimit:10;"/><line style="stroke:#181818;stroke-width:2.0833;" x1="460.8266" x2="460.8266" y1="1740.4073" y2="1782.074"/><polygon fill="#181818" points="452.4933,1761.2406,460.8266,1782.074,469.16,1761.2406,460.8266,1769.574" style="stroke:#181818;stroke-width:2.0833;stroke-linejoin:miter;stroke-miterlimit:10;"/><line style="stroke:#181818;stroke-width:2.0833;" x1="369.6401" x2="303.5896" y1="1921.934" y2="1921.934"/><line style="stroke:#181818;stroke-width:2.0833;" x1="303.5896" x2="303.5896" y1="1921.934" y2="1967.7673"/><polygon fill="#181818" points="295.2563,1946.934,303.5896,1967.7673,311.923,1946.934,303.5896,1955.2673" style="stroke:#181818;stroke-width:2.0833;stroke-linejoin:miter;stroke-miterlimit:10;"/><line style="stroke:#181818;stroke-width:2.0833;" x1="552.0131" x2="618.0636" y1="1921.934" y2="1921.934"/><line style="stroke:#181818;stroke-width:2.0833;" x1="618.0636" x2="618.0636" y1="1921.934" y2="1967.7673"/><polygon fill="#181818" points="609.7303,1946.934,618.0636,1967.7673,626.3969,1946.934,618.0636,1955.2673" style="stroke:#181818;stroke-width:2.0833;stroke-linejoin:miter;stroke-miterlimit:10;"/><line style="stroke:#181818;stroke-width:2.0833;" x1="303.5896" x2="303.5896" y1="2040.9607" y2="2078.4607"/><line style="stroke:#181818;stroke-width:2.0833;" x1="303.5896" x2="435.8266" y1="2078.4607" y2="2078.4607"/><polygon fill="#181818" points="414.9933,2070.1274,435.8266,2078.4607,414.9933,2086.794,423.3266,2078.4607" style="stroke:#181818;stroke-width:2.0833;stroke-linejoin:miter;stroke-miterlimit:10;"/><line style="stroke:#181818;stroke-width:2.0833;" x1="618.0636" x2="618.0636" y1="2040.9607" y2="2078.4607"/><line style="stroke:#181818;stroke-width:2.0833;" x1="618.0636" x2="485.8266" y1="2078.4607" y2="2078.4607"/><polygon fill="#181818" points="506.66,2070.1274,485.8266,2078.4607,506.66,2086.794,498.3266,2078.4607" style="stroke:#181818;stroke-width:2.0833;stroke-linejoin:miter;stroke-miterlimit:10;"/><line style="stroke:#181818;stroke-width:2.0833;" x1="460.8266" x2="460.8266" y1="1855.2673" y2="1896.934"/><polygon fill="#181818" points="452.4933,1876.1007,460.8266,1896.934,469.16,1876.1007,460.8266,1884.434" style="stroke:#181818;stroke-width:2.0833;stroke-linejoin:miter;stroke-miterlimit:10;"/><line style="stroke:#181818;stroke-width:2.0833;" x1="460.8266" x2="460.8266" y1="2103.4607" y2="2145.1274"/><polygon fill="#181818" points="452.4933,2124.294,460.8266,2145.1274,469.16,2124.294,460.8266,2132.6274" style="stroke:#181818;stroke-width:2.0833;stroke-linejoin:miter;stroke-miterlimit:10;"/><line style="stroke:#181818;stroke-width:2.0833;" x1="332.6162" x2="266.7567" y1="2284.9874" y2="2284.9874"/><line style="stroke:#181818;stroke-width:2.0833;" x1="266.7567" x2="266.7567" y1="2284.9874" y2="2351.6541"/><polygon fill="#181818" points="258.4234,2330.8207,266.7567,2351.6541,275.09,2330.8207,266.7567,2339.1541" style="stroke:#181818;stroke-width:2.0833;stroke-linejoin:miter;stroke-miterlimit:10;"/><line style="stroke:#181818;stroke-width:2.0833;" x1="589.0371" x2="654.8965" y1="2284.9874" y2="2284.9874"/><line style="stroke:#181818;stroke-width:2.0833;" x1="654.8965" x2="654.8965" y1="2284.9874" y2="2351.6541"/><polygon fill="#181818" points="646.5632,2330.8207,654.8965,2351.6541,663.2299,2330.8207,654.8965,2339.1541" style="stroke:#181818;stroke-width:2.0833;stroke-linejoin:miter;stroke-miterlimit:10;"/><line style="stroke:#181818;stroke-width:2.0833;" x1="266.7567" x2="266.7567" y1="2424.8474" y2="2585.5408"/><line style="stroke:#181818;stroke-width:2.0833;" x1="266.7567" x2="435.8266" y1="2585.5408" y2="2585.5408"/><polygon fill="#181818" points="414.9933,2577.2074,435.8266,2585.5408,414.9933,2593.8741,423.3266,2585.5408" style="stroke:#181818;stroke-width:2.0833;stroke-linejoin:miter;stroke-miterlimit:10;"/><line style="stroke:#181818;stroke-width:2.0833;" x1="460.8266" x2="460.8266" y1="2218.3207" y2="2259.9874"/><polygon fill="#181818" points="452.4933,2239.1541,460.8266,2259.9874,469.16,2239.1541,460.8266,2247.4874" style="stroke:#181818;stroke-width:2.0833;stroke-linejoin:miter;stroke-miterlimit:10;"/><line style="stroke:#181818;stroke-width:2.0833;" x1="460.8266" x2="460.8266" y1="2702.2074" y2="2756.6833"/><polygon fill="#181818" points="452.4933,2735.85,460.8266,2756.6833,469.16,2735.85,460.8266,2744.1833" style="stroke:#181818;stroke-width:2.0833;stroke-linejoin:miter;stroke-miterlimit:10;"/><line style="stroke:#181818;stroke-width:2.0833;" x1="579.9978" x2="665.0925" y1="2677.2074" y2="2677.2074"/><polygon fill="#181818" points="656.7591,2772.4467,665.0925,2793.28,673.4258,2772.4467,665.0925,2780.78" style="stroke:#181818;stroke-width:2.0833;stroke-linejoin:miter;stroke-miterlimit:10;"/><line style="stroke:#181818;stroke-width:2.0833;" x1="665.0925" x2="665.0925" y1="2677.2074" y2="2896.5434"/><line style="stroke:#181818;stroke-width:2.0833;" x1="665.0925" x2="485.8266" y1="2896.5434" y2="2896.5434"/><polygon fill="#181818" points="506.66,2888.21,485.8266,2896.5434,506.66,2904.8767,498.3266,2896.5434" style="stroke:#181818;stroke-width:2.0833;stroke-linejoin:miter;stroke-miterlimit:10;"/><line style="stroke:#181818;stroke-width:2.0833;" x1="460.8266" x2="460.8266" y1="2829.8767" y2="2871.5434"/><polygon fill="#181818" points="452.4933,2850.71,460.8266,2871.5434,469.16,2850.71,460.8266,2859.0434" style="stroke:#181818;stroke-width:2.0833;stroke-linejoin:miter;stroke-miterlimit:10;"/><line style="stroke:#181818;stroke-width:2.0833;" x1="460.8266" x2="460.8266" y1="2610.5408" y2="2652.2074"/><polygon fill="#181818" points="452.4933,2631.3741,460.8266,2652.2074,469.16,2631.3741,460.8266,2639.7074" style="stroke:#181818;stroke-width:2.0833;stroke-linejoin:miter;stroke-miterlimit:10;"/><line style="stroke:#181818;stroke-width:2.0833;" x1="460.8266" x2="460.8266" y1="2921.5434" y2="2963.21"/><polygon fill="#181818" points="452.4933,2942.3767,460.8266,2963.21,469.16,2942.3767,460.8266,2950.71" style="stroke:#181818;stroke-width:2.0833;stroke-linejoin:miter;stroke-miterlimit:10;"/><line style="stroke:#181818;stroke-width:2.0833;" x1="460.8266" x2="460.8266" y1="1625.5473" y2="1667.2139"/><polygon fill="#181818" points="452.4933,1646.3806,460.8266,1667.2139,469.16,1646.3806,460.8266,1654.7139" style="stroke:#181818;stroke-width:2.0833;stroke-linejoin:miter;stroke-miterlimit:10;"/><line style="stroke:#181818;stroke-width:2.0833;" x1="319.4875" x2="81.25" y1="3103.0701" y2="3103.0701"/><polygon fill="#181818" points="72.9167,2363.4216,81.25,2342.5883,89.5833,2363.4216,81.25,2355.0883" style="stroke:#181818;stroke-width:2.0833;stroke-linejoin:miter;stroke-miterlimit:10;"/><line style="stroke:#181818;stroke-width:2.0833;" x1="81.25" x2="81.25" y1="1600.5473" y2="3103.0701"/><line style="stroke:#181818;stroke-width:2.0833;" x1="81.25" x2="435.8266" y1="1600.5473" y2="1600.5473"/><polygon fill="#181818" points="414.9933,1592.2139,435.8266,1600.5473,414.9933,1608.8806,423.3266,1600.5473" style="stroke:#181818;stroke-width:2.0833;stroke-linejoin:miter;stroke-miterlimit:10;"/><line style="stroke:#181818;stroke-width:2.0833;" x1="460.8266" x2="460.8266" y1="3036.4034" y2="3078.0701"/><polygon fill="#181818" points="452.4933,3057.2367,460.8266,3078.0701,469.16,3057.2367,460.8266,3065.5701" style="stroke:#181818;stroke-width:2.0833;stroke-linejoin:miter;stroke-miterlimit:10;"/><line style="stroke:#181818;stroke-width:2.0833;" x1="460.8266" x2="460.8266" y1="3128.0701" y2="3199.9349"/><polygon fill="#181818" points="452.4933,3179.1016,460.8266,3199.9349,469.16,3179.1016,460.8266,3187.4349" style="stroke:#181818;stroke-width:2.0833;stroke-linejoin:miter;stroke-miterlimit:10;"/><line style="stroke:#181818;stroke-width:2.0833;" x1="460.8266" x2="460.8266" y1="3273.1283" y2="3314.7949"/><polygon fill="#181818" points="452.4933,3293.9616,460.8266,3314.7949,469.16,3293.9616,460.8266,3302.2949" style="stroke:#181818;stroke-width:2.0833;stroke-linejoin:miter;stroke-miterlimit:10;"/><line style="stroke:#181818;stroke-width:2.0833;" x1="460.8266" x2="460.8266" y1="3479.6549" y2="3534.1309"/><polygon fill="#181818" points="452.4933,3513.2975,460.8266,3534.1309,469.16,3513.2975,460.8266,3521.6309" style="stroke:#181818;stroke-width:2.0833;stroke-linejoin:miter;stroke-miterlimit:10;"/><line style="stroke:#181818;stroke-width:2.0833;" x1="625.2065" x2="698.7417" y1="3454.6549" y2="3454.6549"/><polygon fill="#181818" points="690.4083,3549.8942,698.7417,3570.7275,707.075,3549.8942,698.7417,3558.2275" style="stroke:#181818;stroke-width:2.0833;stroke-linejoin:miter;stroke-miterlimit:10;"/><line style="stroke:#181818;stroke-width:2.0833;" x1="698.7417" x2="698.7417" y1="3454.6549" y2="3673.9909"/><line style="stroke:#181818;stroke-width:2.0833;" x1="698.7417" x2="485.8266" y1="3673.9909" y2="3673.9909"/><polygon fill="#181818" points="506.66,3665.6576,485.8266,3673.9909,506.66,3682.3242,498.3266,3673.9909" style="stroke:#181818;stroke-width:2.0833;stroke-linejoin:miter;stroke-miterlimit:10;"/><line style="stroke:#181818;stroke-width:2.0833;" x1="460.8266" x2="460.8266" y1="3607.3242" y2="3648.9909"/><polygon fill="#181818" points="452.4933,3628.1576,460.8266,3648.9909,469.16,3628.1576,460.8266,3636.4909" style="stroke:#181818;stroke-width:2.0833;stroke-linejoin:miter;stroke-miterlimit:10;"/><line style="stroke:#181818;stroke-width:2.0833;" x1="460.8266" x2="460.8266" y1="3387.9883" y2="3429.6549"/><polygon fill="#181818" points="452.4933,3408.8216,460.8266,3429.6549,469.16,3408.8216,460.8266,3417.1549" style="stroke:#181818;stroke-width:2.0833;stroke-linejoin:miter;stroke-miterlimit:10;"/><line style="stroke:#181818;stroke-width:2.0833;" x1="460.8266" x2="460.8266" y1="3698.9909" y2="3740.6576"/><polygon fill="#181818" points="452.4933,3719.8242,460.8266,3740.6576,469.16,3719.8242,460.8266,3728.1576" style="stroke:#181818;stroke-width:2.0833;stroke-linejoin:miter;stroke-miterlimit:10;"/><line style="stroke:#181818;stroke-width:2.0833;" x1="460.8266" x2="460.8266" y1="3813.8509" y2="3855.5176"/><polygon fill="#181818" points="452.4933,3834.6842,460.8266,3855.5176,469.16,3834.6842,460.8266,3843.0176" style="stroke:#181818;stroke-width:2.0833;stroke-linejoin:miter;stroke-miterlimit:10;"/><line style="stroke:#181818;stroke-width:2.0833;" x1="460.8266" x2="460.8266" y1="4273.291" y2="4314.9577"/><polygon fill="#181818" points="452.4933,4294.1243,460.8266,4314.9577,469.16,4294.1243,460.8266,4302.4577" style="stroke:#181818;stroke-width:2.0833;stroke-linejoin:miter;stroke-miterlimit:10;"/><line style="stroke:#181818;stroke-width:2.0833;" x1="1138.8115" x2="1138.8115" y1="657.4972" y2="730.4138"/><polygon fill="#181818" points="1130.4782,709.5805,1138.8115,730.4138,1147.1448,709.5805,1138.8115,717.9138" style="stroke:#181818;stroke-width:2.0833;stroke-linejoin:miter;stroke-miterlimit:10;"/><line style="stroke:#181818;stroke-width:2.0833;" x1="1138.8115" x2="1138.8115" y1="1239.8539" y2="1281.5206"/><polygon fill="#181818" points="1130.4782,1260.6873,1138.8115,1281.5206,1147.1448,1260.6873,1138.8115,1269.0206" style="stroke:#181818;stroke-width:2.0833;stroke-linejoin:miter;stroke-miterlimit:10;"/><line style="stroke:#181818;stroke-width:2.0833;" x1="1138.8115" x2="1138.8115" y1="4043.571" y2="4085.2376"/><polygon fill="#181818" points="1130.4782,4064.4043,1138.8115,4085.2376,1147.1448,4064.4043,1138.8115,4072.7376" style="stroke:#181818;stroke-width:2.0833;stroke-linejoin:miter;stroke-miterlimit:10;"/><line style="stroke:#181818;stroke-width:2.0833;" x1="460.8266" x2="460.8266" y1="542.6371" y2="553.0538"/><line style="stroke:#181818;stroke-width:2.0833;" x1="460.8266" x2="1138.8115" y1="553.0538" y2="553.0538"/><line style="stroke:#181818;stroke-width:2.0833;" x1="1138.8115" x2="1138.8115" y1="553.0538" y2="584.3038"/><polygon fill="#181818" points="1130.4782,563.4705,1138.8115,584.3038,1147.1448,563.4705,1138.8115,571.8038" style="stroke:#181818;stroke-width:2.0833;stroke-linejoin:miter;stroke-miterlimit:10;"/><line style="stroke:#181818;stroke-width:2.0833;" x1="1138.8115" x2="1138.8115" y1="803.6072" y2="814.0238"/><line style="stroke:#181818;stroke-width:2.0833;" x1="1138.8115" x2="460.8266" y1="814.0238" y2="814.0238"/><line style="stroke:#181818;stroke-width:2.0833;" x1="460.8266" x2="460.8266" y1="814.0238" y2="845.2738"/><polygon fill="#181818" points="452.4933,824.4405,460.8266,845.2738,469.16,824.4405,460.8266,832.7738" style="stroke:#181818;stroke-width:2.0833;stroke-linejoin:miter;stroke-miterlimit:10;"/><line style="stroke:#181818;stroke-width:2.0833;" x1="460.8266" x2="460.8266" y1="1124.9939" y2="1135.4106"/><line style="stroke:#181818;stroke-width:2.0833;" x1="460.8266" x2="1138.8115" y1="1135.4106" y2="1135.4106"/><line style="stroke:#181818;stroke-width:2.0833;" x1="1138.8115" x2="1138.8115" y1="1135.4106" y2="1166.6606"/><polygon fill="#181818" points="1130.4782,1145.8272,1138.8115,1166.6606,1147.1448,1145.8272,1138.8115,1154.1606" style="stroke:#181818;stroke-width:2.0833;stroke-linejoin:miter;stroke-miterlimit:10;"/><line style="stroke:#181818;stroke-width:2.0833;" x1="1015.4167" x2="263.0506" y1="1306.5206" y2="1306.5206"/><line style="stroke:#181818;stroke-width:2.0833;" x1="263.0506" x2="263.0506" y1="1306.5206" y2="1373.1873"/><polygon fill="#181818" points="254.7173,1352.3539,263.0506,1373.1873,271.3839,1352.3539,263.0506,1360.6873" style="stroke:#181818;stroke-width:2.0833;stroke-linejoin:miter;stroke-miterlimit:10;"/><line style="stroke:#181818;stroke-width:2.0833;" x1="1262.2063" x2="1287.2063" y1="1306.5206" y2="1306.5206"/><line style="stroke:#181818;stroke-width:2.0833;" x1="1287.2063" x2="1287.2063" y1="1306.5206" y2="1344.0206"/><line style="stroke:#181818;stroke-width:2.0833;" x1="1287.2063" x2="658.6027" y1="1344.0206" y2="1344.0206"/><line style="stroke:#181818;stroke-width:2.0833;" x1="658.6027" x2="658.6027" y1="1344.0206" y2="1373.1873"/><polygon fill="#181818" points="650.2693,1352.3539,658.6027,1373.1873,666.936,1352.3539,658.6027,1360.6873" style="stroke:#181818;stroke-width:2.0833;stroke-linejoin:miter;stroke-miterlimit:10;"/><line style="stroke:#181818;stroke-width:2.0833;" x1="658.6027" x2="658.6027" y1="1446.3806" y2="1544.2973"/><line style="stroke:#181818;stroke-width:2.0833;" x1="658.6027" x2="460.8266" y1="1544.2973" y2="1544.2973"/><line style="stroke:#181818;stroke-width:2.0833;" x1="460.8266" x2="460.8266" y1="1544.2973" y2="1575.5473"/><polygon fill="#181818" points="452.4933,1554.7139,460.8266,1575.5473,469.16,1554.7139,460.8266,1563.0473" style="stroke:#181818;stroke-width:2.0833;stroke-linejoin:miter;stroke-miterlimit:10;"/><line style="stroke:#181818;stroke-width:2.0833;" x1="654.8965" x2="654.8965" y1="2424.8474" y2="2435.2641"/><line style="stroke:#181818;stroke-width:2.0833;" x1="654.8965" x2="1332.8814" y1="2435.2641" y2="2435.2641"/><line style="stroke:#181818;stroke-width:2.0833;" x1="1332.8814" x2="1332.8814" y1="2435.2641" y2="2466.5141"/><polygon fill="#181818" points="1324.5481,2445.6807,1332.8814,2466.5141,1341.2148,2445.6807,1332.8814,2454.0141" style="stroke:#181818;stroke-width:2.0833;stroke-linejoin:miter;stroke-miterlimit:10;"/><line style="stroke:#181818;stroke-width:2.0833;" x1="1332.8814" x2="1332.8814" y1="2539.7074" y2="2585.5408"/><line style="stroke:#181818;stroke-width:2.0833;" x1="1332.8814" x2="485.8266" y1="2585.5408" y2="2585.5408"/><polygon fill="#181818" points="506.66,2577.2074,485.8266,2585.5408,506.66,2593.8741,498.3266,2585.5408" style="stroke:#181818;stroke-width:2.0833;stroke-linejoin:miter;stroke-miterlimit:10;"/><line style="stroke:#181818;stroke-width:2.0833;" x1="460.8266" x2="460.8266" y1="3928.7109" y2="3939.1276"/><line style="stroke:#181818;stroke-width:2.0833;" x1="460.8266" x2="1138.8115" y1="3939.1276" y2="3939.1276"/><line style="stroke:#181818;stroke-width:2.0833;" x1="1138.8115" x2="1138.8115" y1="3939.1276" y2="3970.3776"/><polygon fill="#181818" points="1130.4782,3949.5443,1138.8115,3970.3776,1147.1448,3949.5443,1138.8115,3957.8776" style="stroke:#181818;stroke-width:2.0833;stroke-linejoin:miter;stroke-miterlimit:10;"/><line style="stroke:#181818;stroke-width:2.0833;" x1="1138.8115" x2="1138.8115" y1="4158.431" y2="4168.8477"/><line style="stroke:#181818;stroke-width:2.0833;" x1="1138.8115" x2="460.8266" y1="4168.8477" y2="4168.8477"/><line style="stroke:#181818;stroke-width:2.0833;" x1="460.8266" x2="460.8266" y1="4168.8477" y2="4200.0977"/><polygon fill="#181818" points="452.4933,4179.2643,460.8266,4200.0977,469.16,4179.2643,460.8266,4187.5977" style="stroke:#181818;stroke-width:2.0833;stroke-linejoin:miter;stroke-miterlimit:10;"/><text fill="#000000" font-family="Arial" font-size="29.1667" lengthAdjust="spacing" textLength="153.3813" x="384.4158" y="149.4792">Pelanggan</text><text fill="#000000" font-family="Arial" font-size="29.1667" lengthAdjust="spacing" textLength="310.0382" x="1059.2613" y="149.4792">Sistem Busana Prima</text><?plantuml-src VLNRRjj837tNLn0eK2GFARAv5Adzi72Q2DXDkslKHe4-qX4jiIFD27FP88jyV3cZQnAd1cB08dbu3dceUFOrmJVyYHMSVpWxmkD5_skbFF_7dc5DDUgoH0qdaAD3M0LFshD2n_0UjjIqMA7ECgTOjsYnWQ9bE3izdJrn5HRcWNK9UwmTpNDfZw7skT7-7sm8LfQnFXpVyFy4VrpCWZxIdq9Nin3U9_wFK_JyGFI6iJ6wc9BEPadoBGtOw2byEGklUenhl5UbDK4NdqrjBBpBh_9F-UfGfh45sJxhF7qEPFMSNiFc-VddczyKpD6lBZzUdCv7jHx4lCAzlStFylnWwXpn8h_uU7kPPK-Z8PuovoKrMtmDDK93yZ1eLE8KRElE7zV1eKPOMsvmcMMyXwDDACHUZTWcw4Taa8AW_pm6Nv66eoqNg8upWCKDxWMz2yDEB6R3Kfu_RTXvQfuXFyNy3LQnjOW8Ndnvpwt7hdgPmYm-rT1Qi-SQsa53Wfmfce3efA5wcP7O5Ov-u756kk1zbYs-c18QT4618d29pJ8xJ6l0KfOAqawSlKmpk1j_WyFgjVWNZDOeYv6HEVe95clqaRNpffsnaxHhqcZJ-9KZ1qvPrX0ynj7tvEV0bbf2dnHJWmgusQ43XHvhKMX98Upaq8DAyrjppTNygPo7GeuJb70KzJTfZlKyRNCJsrgEx4Q8c02k2qJaJiAQjBnrsBzERVj8okrKZ0aFQ6NOBubiGhCZ2q45YnENTRTvHmMBBmfyrgctHLSoiVehZWG7-_KLmyCRBbbc1LjaEP1b2hxbJYcxOulYI_VCXrF3bqiVfKP5tzdw45lPnvD_9qa_1X5Vk48lcEZbJMNqD951oEYiQO9R51qLSAGhHlRMrBAFpXJmK74TosOvTRTOMN7i2zhu4JRh7PGmukrLTAzCa9NrunNFDXYlKY75wvUTbl8_G-uxhIrAN1NOSvdvuuNInPOyjj7XSu1KCHngpsYurQwz9zlWr7s7ZrtZuJmB-UlG13WkBf9wuwB5Hl6uUepnHJFMBUwCCxgCiECuKeOZcQKkby-FK2H5u2H88AgahOTA5_uB?></g></svg>