<svg width="33" height="33" viewBox="0 0 33 33" fill="none" xmlns="http://www.w3.org/2000/svg">
<circle cx="16.5" cy="16.5" r="16.5" fill="#DACECC"/>
<path d="M22 22C22.5304 22 23.0391 22.2107 23.4142 22.5858C23.7893 22.9609 24 23.4696 24 24C24 24.5304 23.7893 25.0391 23.4142 25.4142C23.0391 25.7893 22.5304 26 22 26C21.4696 26 20.9609 25.7893 20.5858 25.4142C20.2107 25.0391 20 24.5304 20 24C20 22.89 20.89 22 22 22ZM6 6H9.27L10.21 8H25C25.2652 8 25.5196 8.10536 25.7071 8.29289C25.8946 8.48043 26 8.73478 26 9C26 9.17 25.95 9.34 25.88 9.5L22.3 15.97C21.96 16.58 21.3 17 20.55 17H13.1L12.2 18.63L12.17 18.75C12.17 18.8163 12.1963 18.8799 12.2432 18.9268C12.2901 18.9737 12.3537 19 12.42 19H24V21H12C11.4696 21 10.9609 20.7893 10.5858 20.4142C10.2107 20.0391 10 19.5304 10 19C10 18.65 10.09 18.32 10.24 18.04L11.6 15.59L8 8H6V6ZM12 22C12.5304 22 13.0391 22.2107 13.4142 22.5858C13.7893 22.9609 14 23.4696 14 24C14 24.5304 13.7893 25.0391 13.4142 25.4142C13.0391 25.7893 12.5304 26 12 26C11.4696 26 10.9609 25.7893 10.5858 25.4142C10.2107 25.0391 10 24.5304 10 24C10 22.89 10.89 22 12 22ZM21 15L23.78 10H11.14L13.5 15H21Z" fill="black"/>
</svg>
