<svg width="23" height="23" viewBox="0 0 23 23" fill="none" xmlns="http://www.w3.org/2000/svg">
<path d="M8.74883 4.76302C9.61252 4.35088 10.5578 4.13805 11.5148 4.14025C12.4717 4.14245 13.416 4.35962 14.2778 4.77574C15.1396 5.19185 15.8968 5.79626 16.4937 6.54433C17.0905 7.29239 17.5117 8.16499 17.726 9.09766C17.9369 10.0131 17.9439 10.9638 17.7464 11.8823C17.5489 12.8007 17.1518 13.6645 16.5832 14.4124L16.0048 15.1728C15.7329 15.5301 15.4316 15.864 15.104 16.171L11.644 19.4149C11.605 19.4515 11.5536 19.4718 11.5002 19.4718C11.4468 19.4718 11.3954 19.4515 11.3565 19.4149L7.8964 16.1713C7.56884 15.8643 7.26754 15.5304 6.99566 15.1731L6.41721 14.4124C5.84859 13.6645 5.45146 12.8007 5.25397 11.8821C5.05647 10.9636 5.06344 10.0129 5.2744 9.09737C5.49025 8.16011 5.91476 7.28362 6.51633 6.53317C7.11789 5.78273 7.881 5.17766 8.74883 4.76302Z" fill="#EB5757" stroke="#EB5757" stroke-linecap="round" stroke-linejoin="round"/>
<path d="M10.2837 7.39999C10.6638 7.21922 11.0793 7.12543 11.5001 7.12543C11.921 7.12543 12.3365 7.21922 12.7166 7.39999L12.7436 7.41293C13.1205 7.59213 13.4521 7.85414 13.7136 8.17941C13.9751 8.50469 14.1598 8.88483 14.2538 9.29145C14.3477 9.70236 14.3471 10.1292 14.2521 10.5399C14.1571 10.9505 13.9701 11.3343 13.7053 11.6622C13.4424 11.9878 13.1102 12.2505 12.7328 12.4314C12.3554 12.6122 11.9425 12.7066 11.524 12.7075H11.4763C11.0578 12.7066 10.6449 12.6122 10.2675 12.4314C9.89014 12.2505 9.55791 11.9878 9.29502 11.6622C9.0302 11.3343 8.84324 10.9505 8.74822 10.5399C8.65321 10.1292 8.65261 9.70236 8.74647 9.29145C8.84052 8.88483 9.02518 8.50469 9.28669 8.17941C9.54819 7.85414 9.87978 7.59213 10.2567 7.41293L10.2837 7.39999Z" fill="#F2F2F2" stroke="#F2F2F2" stroke-linecap="round" stroke-linejoin="round"/>
<path d="M4.6001 19.55H18.4001" stroke="#F2994A" stroke-linecap="round" stroke-linejoin="round"/>
</svg>
